Manrope-ExtraLight.ufo
<glyph name="dollar" format="2">
  <advance width="557"/>
  <unicode hex="0024"/>
  <note>
dollar
</note>
  <outline>
    <contour>
      <point x="254" y="-98" type="line"/>
      <point x="296" y="-98" type="line"/>
      <point x="296" y="20" type="line"/>
      <point x="254" y="20" type="line"/>
    </contour>
    <contour>
      <point x="254" y="702" type="line"/>
      <point x="296" y="702" type="line"/>
      <point x="296" y="820" type="line"/>
      <point x="254" y="820" type="line"/>
    </contour>
    <contour>
      <point x="288" y="-15" type="curve" smooth="yes"/>
      <point x="422" y="-15"/>
      <point x="526" y="55"/>
      <point x="526" y="187" type="curve" smooth="yes"/>
      <point x="526" y="321"/>
      <point x="419" y="355"/>
      <point x="371" y="370" type="curve" smooth="yes"/>
      <point x="229" y="415" type="line" smooth="yes"/>
      <point x="164" y="436"/>
      <point x="92" y="463"/>
      <point x="92" y="546" type="curve" smooth="yes"/>
      <point x="92" y="633"/>
      <point x="170" y="693"/>
      <point x="273" y="693" type="curve" smooth="yes"/>
      <point x="382" y="693"/>
      <point x="469" y="625"/>
      <point x="483" y="517" type="curve"/>
      <point x="523" y="525" type="line"/>
      <point x="505" y="658"/>
      <point x="401" y="735"/>
      <point x="272" y="735" type="curve" smooth="yes"/>
      <point x="146" y="735"/>
      <point x="50" y="661"/>
      <point x="50" y="545" type="curve" smooth="yes"/>
      <point x="50" y="426"/>
      <point x="153" y="393"/>
      <point x="191" y="381" type="curve" smooth="yes"/>
      <point x="342" y="334" type="line" smooth="yes"/>
      <point x="410" y="313"/>
      <point x="487" y="288"/>
      <point x="487" y="189" type="curve" smooth="yes"/>
      <point x="487" y="82"/>
      <point x="397" y="27"/>
      <point x="288" y="27" type="curve" smooth="yes"/>
      <point x="176" y="27"/>
      <point x="88" y="86"/>
      <point x="63" y="187" type="curve"/>
      <point x="23" y="179" type="line"/>
      <point x="49" y="54"/>
      <point x="156" y="-15"/>
    </contour>
  </outline>
</glyph>
<glyph name="parenleft" format="2">
  <advance width="408"/>
  <unicode hex="0028"/>
  <note>
parenleft
</note>
  <outline>
    <contour>
      <point x="332" y="-172" type="curve"/>
      <point x="363" y="-145" type="line"/>
      <point x="251" y="-17"/>
      <point x="180" y="162"/>
      <point x="180" y="330" type="curve" smooth="yes"/>
      <point x="180" y="501"/>
      <point x="249" y="672"/>
      <point x="363" y="806" type="curve"/>
      <point x="332" y="832" type="line"/>
      <point x="214" y="698"/>
      <point x="140" y="514"/>
      <point x="140" y="330" type="curve" smooth="yes"/>
      <point x="140" y="146"/>
      <point x="214" y="-38"/>
    </contour>
  </outline>
</glyph>
<glyph name="comma" format="2">
  <advance width="240"/>
  <unicode hex="002C"/>
  <note>
comma
</note>
  <outline>
    <contour>
      <point x="60" y="-89" type="line"/>
      <point x="92" y="-97"/>
      <point x="120" y="-74"/>
      <point x="120" y="-30" type="curve" smooth="yes"/>
      <point x="120" y="90" type="line"/>
      <point x="60" y="90" type="line"/>
      <point x="60" y="0" type="line"/>
      <point x="93" y="0" type="line"/>
      <point x="93" y="-32"/>
      <point x="98" y="-65"/>
      <point x="63" y="-63" type="curve"/>
    </contour>
  </outline>
</glyph>
<glyph name="period" format="2">
  <advance width="220"/>
  <unicode hex="002E"/>
  <note>
period
</note>
  <outline>
    <contour>
      <point x="80" y="0" type="line"/>
      <point x="140" y="0" type="line"/>
      <point x="140" y="60" type="line"/>
      <point x="80" y="60" type="line"/>
    </contour>
  </outline>
</glyph>
<glyph name="two" format="2">
  <advance width="553"/>
  <unicode hex="0032"/>
  <note>
two
</note>
  <outline>
    <contour>
      <point x="50" y="0" type="line"/>
      <point x="503" y="0" type="line"/>
      <point x="503" y="42" type="line"/>
      <point x="68" y="42" type="line"/>
      <point x="80" y="12" type="line"/>
      <point x="416" y="318" type="line" smooth="yes"/>
      <point x="478" y="374"/>
      <point x="503" y="430"/>
      <point x="503" y="512" type="curve" smooth="yes"/>
      <point x="503" y="632"/>
      <point x="406" y="735"/>
      <point x="280" y="735" type="curve" smooth="yes"/>
      <point x="157" y="735"/>
      <point x="57" y="635"/>
      <point x="57" y="512" type="curve"/>
      <point x="99" y="512" type="line"/>
      <point x="99" y="609"/>
      <point x="177" y="693"/>
      <point x="280" y="693" type="curve" smooth="yes"/>
      <point x="380" y="693"/>
      <point x="461" y="612"/>
      <point x="461" y="512" type="curve" smooth="yes"/>
      <point x="461" y="452"/>
      <point x="449" y="404"/>
      <point x="388" y="349" type="curve" smooth="yes"/>
      <point x="51" y="42" type="line"/>
    </contour>
  </outline>
</glyph>
<glyph name="four" format="2">
  <advance width="577"/>
  <unicode hex="0034"/>
  <note>
four
</note>
  <outline>
    <contour>
      <point x="399" y="0" type="line"/>
      <point x="441" y="0" type="line"/>
      <point x="441" y="153" type="line"/>
      <point x="527" y="153" type="line"/>
      <point x="527" y="195" type="line"/>
      <point x="441" y="195" type="line"/>
      <point x="441" y="420" type="line"/>
      <point x="399" y="420" type="line"/>
      <point x="399" y="195" type="line"/>
      <point x="96" y="195" type="line"/>
      <point x="344" y="720" type="line"/>
      <point x="298" y="720" type="line"/>
      <point x="50" y="195" type="line"/>
      <point x="50" y="153" type="line"/>
      <point x="399" y="153" type="line"/>
    </contour>
  </outline>
</glyph>
<glyph name="six" format="2">
  <advance width="620"/>
  <unicode hex="0036"/>
  <note>
six
</note>
  <outline>
    <contour>
      <point x="310" y="-15" type="curve" smooth="yes"/>
      <point x="442" y="-15"/>
      <point x="550" y="93"/>
      <point x="550" y="225" type="curve" smooth="yes"/>
      <point x="550" y="357"/>
      <point x="442" y="465"/>
      <point x="310" y="465" type="curve" smooth="yes"/>
      <point x="217" y="465"/>
      <point x="138" y="410"/>
      <point x="96" y="332" type="curve"/>
      <point x="112" y="313" type="line"/>
      <point x="112" y="495" type="line" smooth="yes"/>
      <point x="112" y="601"/>
      <point x="197" y="693"/>
      <point x="310" y="693" type="curve" smooth="yes"/>
      <point x="383" y="693"/>
      <point x="447" y="653"/>
      <point x="481" y="594" type="curve"/>
      <point x="517" y="615" type="line"/>
      <point x="476" y="687"/>
      <point x="398" y="735"/>
      <point x="310" y="735" type="curve" smooth="yes"/>
      <point x="177" y="735"/>
      <point x="70" y="627"/>
      <point x="70" y="495" type="curve" smooth="yes"/>
      <point x="70" y="225" type="line" smooth="yes"/>
      <point x="70" y="93"/>
      <point x="178" y="-15"/>
    </contour>
    <contour>
      <point x="310" y="27" type="curve" smooth="yes"/>
      <point x="200" y="27"/>
      <point x="112" y="115"/>
      <point x="112" y="225" type="curve" smooth="yes"/>
      <point x="112" y="335"/>
      <point x="200" y="423"/>
      <point x="310" y="423" type="curve" smooth="yes"/>
      <point x="420" y="423"/>
      <point x="508" y="335"/>
      <point x="508" y="225" type="curve" smooth="yes"/>
      <point x="508" y="115"/>
      <point x="420" y="27"/>
    </contour>
  </outline>
</glyph>
<glyph name="at" format="2">
  <advance width="911"/>
  <unicode hex="0040"/>
  <note>
at
</note>
  <outline>
    <contour>
      <point x="459" y="-105" type="curve" smooth="yes"/>
      <point x="534" y="-105"/>
      <point x="612" y="-88"/>
      <point x="677" y="-46" type="curve"/>
      <point x="654" y="-9" type="line"/>
      <point x="597" y="-46"/>
      <point x="529" y="-63"/>
      <point x="459" y="-63" type="curve" smooth="yes"/>
      <point x="252" y="-63"/>
      <point x="125" y="58"/>
      <point x="125" y="271" type="curve" smooth="yes"/>
      <point x="125" y="513"/>
      <point x="296" y="600"/>
      <point x="453" y="600" type="curve" smooth="yes"/>
      <point x="657" y="600"/>
      <point x="781" y="481"/>
      <point x="786" y="269" type="curve" smooth="yes"/>
      <point x="788" y="195"/>
      <point x="766" y="117"/>
      <point x="689" y="117" type="curve" smooth="yes"/>
      <point x="645" y="117"/>
      <point x="593" y="152"/>
      <point x="593" y="212" type="curve"/>
      <point x="593" y="392" type="line"/>
      <point x="554" y="392" type="line"/>
      <point x="554" y="324" type="line"/>
      <point x="573" y="343" type="line"/>
      <point x="549" y="390"/>
      <point x="497" y="406"/>
      <point x="455" y="406" type="curve" smooth="yes"/>
      <point x="374" y="406"/>
      <point x="317" y="349"/>
      <point x="319" y="269" type="curve" smooth="yes"/>
      <point x="322" y="184"/>
      <point x="373" y="133"/>
      <point x="455" y="133" type="curve" smooth="yes"/>
      <point x="501" y="133"/>
      <point x="553" y="154"/>
      <point x="573" y="194" type="curve"/>
      <point x="554" y="198" type="line"/>
      <point x="547" y="137"/>
      <point x="618" y="75"/>
      <point x="689" y="75" type="curve" smooth="yes"/>
      <point x="787" y="75"/>
      <point x="831" y="157"/>
      <point x="831" y="269" type="curve" smooth="yes"/>
      <point x="831" y="520"/>
      <point x="658" y="645"/>
      <point x="453" y="645" type="curve" smooth="yes"/>
      <point x="226" y="645"/>
      <point x="76" y="494"/>
      <point x="80" y="271" type="curve" smooth="yes"/>
      <point x="84" y="33"/>
      <point x="225" y="-105"/>
    </contour>
    <contour>
      <point x="455" y="176" type="curve" smooth="yes"/>
      <point x="398" y="176"/>
      <point x="361" y="207"/>
      <point x="361" y="270" type="curve" smooth="yes"/>
      <point x="361" y="331"/>
      <point x="395" y="365"/>
      <point x="455" y="365" type="curve" smooth="yes"/>
      <point x="509" y="365"/>
      <point x="548" y="333"/>
      <point x="548" y="270" type="curve" smooth="yes"/>
      <point x="548" y="210"/>
      <point x="511" y="176"/>
    </contour>
  </outline>
</glyph>
<glyph name="A" format="2">
  <advance width="609"/>
  <unicode hex="0041"/>
  <note>
A
</note>
  <outline>
    <contour>
      <point x="20" y="0" type="line"/>
      <point x="65" y="0" type="line"/>
      <point x="319" y="701" type="line"/>
      <point x="289" y="701" type="line"/>
      <point x="544" y="0" type="line"/>
      <point x="589" y="0" type="line"/>
      <point x="327" y="720" type="line"/>
      <point x="282" y="720" type="line"/>
    </contour>
    <contour>
      <point x="120" y="187" type="line"/>
      <point x="488" y="187" type="line"/>
      <point x="488" y="227" type="line"/>
      <point x="120" y="227" type="line"/>
    </contour>
  </outline>
</glyph>
<glyph name="B" format="2">
  <advance width="601"/>
  <unicode hex="0042"/>
  <note>
B
</note>
  <outline>
    <contour>
      <point x="70" y="0" type="line"/>
      <point x="362" y="0" type="line" smooth="yes"/>
      <point x="479" y="0"/>
      <point x="572" y="71"/>
      <point x="572" y="194" type="curve" smooth="yes"/>
      <point x="572" y="296"/>
      <point x="509" y="364"/>
      <point x="414" y="395" type="curve"/>
      <point x="416" y="371" type="line"/>
      <point x="488" y="397"/>
      <point x="536" y="467"/>
      <point x="536" y="543" type="curve" smooth="yes"/>
      <point x="536" y="648"/>
      <point x="447" y="720"/>
      <point x="343" y="720" type="curve" smooth="yes"/>
      <point x="70" y="720" type="line"/>
    </contour>
    <contour>
      <point x="112" y="42" type="line"/>
      <point x="112" y="359" type="line"/>
      <point x="362" y="359" type="line" smooth="yes"/>
      <point x="452" y="359"/>
      <point x="526" y="284"/>
      <point x="526" y="190" type="curve" smooth="yes"/>
      <point x="526" y="96"/>
      <point x="446" y="42"/>
      <point x="342" y="42" type="curve" smooth="yes"/>
    </contour>
    <contour>
      <point x="112" y="400" type="line"/>
      <point x="112" y="679" type="line"/>
      <point x="343" y="679" type="line" smooth="yes"/>
      <point x="426" y="679"/>
      <point x="491" y="626"/>
      <point x="491" y="546" type="curve" smooth="yes"/>
      <point x="491" y="464"/>
      <point x="424" y="400"/>
      <point x="343" y="400" type="curve" smooth="yes"/>
    </contour>
  </outline>
</glyph>
<glyph name="E" format="2">
  <advance width="560"/>
  <unicode hex="0045"/>
  <note>
E
</note>
  <outline>
    <contour>
      <point x="70" y="0" type="line"/>
      <point x="510" y="0" type="line"/>
      <point x="510" y="42" type="line"/>
      <point x="112" y="42" type="line"/>
      <point x="112" y="339" type="line"/>
      <point x="450" y="339" type="line"/>
      <point x="450" y="381" type="line"/>
      <point x="112" y="381" type="line"/>
      <point x="112" y="678" type="line"/>
      <point x="510" y="678" type="line"/>
      <point x="510" y="720" type="line"/>
      <point x="70" y="720" type="line"/>
    </contour>
  </outline>
</glyph>
<glyph name="H" format="2">
  <advance width="660"/>
  <unicode hex="0048"/>
  <note>
H
</note>
  <outline>
    <contour>
      <point x="70" y="0" type="line"/>
      <point x="112" y="0" type="line"/>
      <point x="112" y="339" type="line"/>
      <point x="548" y="339" type="line"/>
      <point x="548" y="0" type="line"/>
      <point x="590" y="0" type="line"/>
      <point x="590" y="720" type="line"/>
      <point x="548" y="720" type="line"/>
      <point x="548" y="381" type="line"/>
      <point x="112" y="381" type="line"/>
      <point x="112" y="720" type="line"/>
      <point x="70" y="720" type="line"/>
    </contour>
  </outline>
</glyph>
<glyph name="J" format="2">
  <advance width="439"/>
  <unicode hex="004A"/>
  <note>
J
</note>
  <outline>
    <contour>
      <point x="179" y="-14" type="curve" smooth="yes"/>
      <point x="245" y="-14"/>
      <point x="303" y="15"/>
      <point x="335" y="71" type="curve" smooth="yes"/>
      <point x="360" y="115"/>
      <point x="358" y="157"/>
      <point x="358" y="212" type="curve" smooth="yes"/>
      <point x="358" y="720" type="line"/>
      <point x="316" y="720" type="line"/>
      <point x="316" y="212" type="line" smooth="yes"/>
      <point x="316" y="160"/>
      <point x="316" y="126"/>
      <point x="298" y="93" type="curve" smooth="yes"/>
      <point x="272" y="46"/>
      <point x="224" y="28"/>
      <point x="181" y="28" type="curve" smooth="yes"/>
      <point x="111" y="28"/>
      <point x="58" y="74"/>
      <point x="43" y="135" type="curve"/>
      <point x="0" y="125" type="line"/>
      <point x="20" y="41"/>
      <point x="92" y="-14"/>
    </contour>
  </outline>
</glyph>
<glyph name="P" format="2">
  <advance width="581"/>
  <unicode hex="0050"/>
  <note>
P
</note>
  <outline>
    <contour>
      <point x="70" y="0" type="line"/>
      <point x="112" y="0" type="line"/>
      <point x="112" y="288" type="line"/>
      <point x="335" y="288" type="line" smooth="yes"/>
      <point x="349" y="288"/>
      <point x="363" y="289"/>
      <point x="381" y="292" type="curve" smooth="yes"/>
      <point x="485" y="308"/>
      <point x="551" y="396"/>
      <point x="551" y="504" type="curve" smooth="yes"/>
      <point x="551" y="612"/>
      <point x="485" y="700"/>
      <point x="381" y="716" type="curve" smooth="yes"/>
      <point x="363" y="719"/>
      <point x="349" y="720"/>
      <point x="335" y="720" type="curve" smooth="yes"/>
      <point x="70" y="720" type="line"/>
    </contour>
    <contour>
      <point x="112" y="330" type="line"/>
      <point x="112" y="678" type="line"/>
      <point x="335" y="678" type="line" smooth="yes"/>
      <point x="346" y="678"/>
      <point x="363" y="677"/>
      <point x="379" y="674" type="curve" smooth="yes"/>
      <point x="462" y="658"/>
      <point x="506" y="585"/>
      <point x="506" y="504" type="curve" smooth="yes"/>
      <point x="506" y="423"/>
      <point x="462" y="350"/>
      <point x="379" y="334" type="curve" smooth="yes"/>
      <point x="363" y="331"/>
      <point x="346" y="330"/>
      <point x="335" y="330" type="curve" smooth="yes"/>
    </contour>
  </outline>
</glyph>
<glyph name="Q" format="2">
  <advance width="706"/>
  <unicode hex="0051"/>
  <note>
Q
</note>
  <outline>
    <contour>
      <point x="637" y="-14" type="line"/>
      <point x="669" y="19" type="line"/>
      <point x="487" y="201" type="line"/>
      <point x="454" y="168" type="line"/>
    </contour>
    <component base="O"/>
  </outline>
</glyph>
<glyph name="U" format="2">
  <advance width="690"/>
  <unicode hex="0055"/>
  <note>
U
</note>
  <outline>
    <contour>
      <point x="345" y="-15" type="curve" smooth="yes"/>
      <point x="505" y="-15"/>
      <point x="620" y="93"/>
      <point x="620" y="255" type="curve" smooth="yes"/>
      <point x="620" y="720" type="line"/>
      <point x="578" y="720" type="line"/>
      <point x="578" y="269" type="line" smooth="yes"/>
      <point x="578" y="91"/>
      <point x="441" y="25"/>
      <point x="345" y="25" type="curve" smooth="yes"/>
      <point x="249" y="25"/>
      <point x="112" y="91"/>
      <point x="112" y="269" type="curve" smooth="yes"/>
      <point x="112" y="720" type="line"/>
      <point x="70" y="720" type="line"/>
      <point x="70" y="255" type="line" smooth="yes"/>
      <point x="70" y="92"/>
      <point x="185" y="-15"/>
    </contour>
  </outline>
</glyph>
<glyph name="W" format="2">
  <advance width="909"/>
  <unicode hex="0057"/>
  <note>
W
</note>
  <outline>
    <contour>
      <point x="226" y="0" type="line"/>
      <point x="270" y="0" type="line"/>
      <point x="454" y="643" type="line"/>
      <point x="639" y="0" type="line"/>
      <point x="683" y="0" type="line"/>
      <point x="889" y="720" type="line"/>
      <point x="845" y="720" type="line"/>
      <point x="661" y="76" type="line"/>
      <point x="476" y="720" type="line"/>
      <point x="432" y="720" type="line"/>
      <point x="248" y="76" type="line"/>
      <point x="63" y="720" type="line"/>
      <point x="20" y="720" type="line"/>
    </contour>
  </outline>
</glyph>
<glyph name="Y" format="2">
  <advance width="519"/>
  <unicode hex="0059"/>
  <note>
Y
</note>
  <outline>
    <contour>
      <point x="239" y="0" type="line"/>
      <point x="281" y="0" type="line"/>
      <point x="281" y="306" type="line"/>
      <point x="519" y="720" type="line"/>
      <point x="471" y="720" type="line"/>
      <point x="260" y="354" type="line"/>
      <point x="48" y="720" type="line"/>
      <point x="0" y="720" type="line"/>
      <point x="239" y="306" type="line"/>
    </contour>
  </outline>
</glyph>
<glyph name="a" format="2">
  <advance width="542"/>
  <unicode hex="0061"/>
  <note>
a
</note>
  <outline>
    <contour>
      <point x="227" y="-15" type="curve" smooth="yes"/>
      <point x="326" y="-15"/>
      <point x="422" y="32"/>
      <point x="456" y="126" type="curve"/>
      <point x="443" y="143" type="line"/>
      <point x="443" y="0" type="line"/>
      <point x="482" y="0" type="line"/>
      <point x="482" y="338" type="line"/>
      <point x="482" y="366"/>
      <point x="480" y="391"/>
      <point x="473" y="417" type="curve" smooth="yes"/>
      <point x="450" y="504"/>
      <point x="385" y="555"/>
      <point x="276" y="555" type="curve" smooth="yes"/>
      <point x="173" y="555"/>
      <point x="82" y="510"/>
      <point x="61" y="411" type="curve"/>
      <point x="105" y="397" type="line"/>
      <point x="126" y="482"/>
      <point x="195" y="513"/>
      <point x="274" y="513" type="curve" smooth="yes"/>
      <point x="402" y="513"/>
      <point x="443" y="432"/>
      <point x="440" y="324" type="curve"/>
      <point x="441" y="332" type="line"/>
      <point x="259" y="310" type="line" smooth="yes"/>
      <point x="193" y="302"/>
      <point x="40" y="283"/>
      <point x="40" y="143" type="curve" smooth="yes"/>
      <point x="40" y="47"/>
      <point x="113" y="-15"/>
    </contour>
    <contour>
      <point x="226" y="27" type="curve" smooth="yes"/>
      <point x="138" y="27"/>
      <point x="84" y="70"/>
      <point x="84" y="140" type="curve" smooth="yes"/>
      <point x="84" y="256"/>
      <point x="232" y="270"/>
      <point x="312" y="278" type="curve" smooth="yes"/>
      <point x="452" y="292" type="line"/>
      <point x="440" y="310" type="line"/>
      <point x="440" y="273"/>
      <point x="443" y="191"/>
      <point x="416" y="134" type="curve" smooth="yes"/>
      <point x="386" y="69"/>
      <point x="313" y="27"/>
    </contour>
  </outline>
</glyph>
<glyph name="b" format="2">
  <advance width="576"/>
  <unicode hex="0062"/>
  <note>
b
</note>
  <outline>
    <contour>
      <point x="301" y="-15" type="curve" smooth="yes"/>
      <point x="454" y="-15"/>
      <point x="536" y="109"/>
      <point x="536" y="271" type="curve" smooth="yes"/>
      <point x="536" y="430"/>
      <point x="454" y="555"/>
      <point x="309" y="555" type="curve" smooth="yes"/>
      <point x="158" y="555"/>
      <point x="77" y="435"/>
      <point x="77" y="271" type="curve" smooth="yes"/>
      <point x="77" y="110"/>
      <point x="158" y="-15"/>
    </contour>
    <contour>
      <point x="70" y="0" type="line"/>
      <point x="109" y="0" type="line"/>
      <point x="109" y="425" type="line"/>
      <point x="112" y="425" type="line"/>
      <point x="112" y="720" type="line"/>
      <point x="70" y="720" type="line"/>
    </contour>
    <contour>
      <point x="301" y="27" type="curve" smooth="yes"/>
      <point x="174" y="27"/>
      <point x="109" y="132"/>
      <point x="109" y="271" type="curve" smooth="yes"/>
      <point x="109" y="412"/>
      <point x="175" y="513"/>
      <point x="301" y="513" type="curve" smooth="yes"/>
      <point x="430" y="513"/>
      <point x="491" y="409"/>
      <point x="491" y="271" type="curve" smooth="yes"/>
      <point x="491" y="132"/>
      <point x="426" y="27"/>
    </contour>
  </outline>
</glyph>
<glyph name="e" format="2">
  <advance width="573"/>
  <unicode hex="0065"/>
  <note>
e
</note>
  <outline>
    <contour>
      <point x="287" y="-15" type="curve" smooth="yes"/>
      <point x="393" y="-15"/>
      <point x="476" y="35"/>
      <point x="520" y="129" type="curve"/>
      <point x="485" y="149" type="line"/>
      <point x="445" y="68"/>
      <point x="377" y="27"/>
      <point x="287" y="27" type="curve" smooth="yes"/>
      <point x="154" y="27"/>
      <point x="85" y="123"/>
      <point x="85" y="270" type="curve" smooth="yes"/>
      <point x="85" y="413"/>
      <point x="152" y="515"/>
      <point x="287" y="513" type="curve" smooth="yes"/>
      <point x="419" y="515"/>
      <point x="484" y="420"/>
      <point x="488" y="272" type="curve"/>
      <point x="488" y="258" type="line"/>
      <point x="533" y="258" type="line"/>
      <point x="533" y="435"/>
      <point x="454" y="555"/>
      <point x="287" y="555" type="curve" smooth="yes"/>
      <point x="129" y="555"/>
      <point x="40" y="440"/>
      <point x="40" y="270" type="curve" smooth="yes"/>
      <point x="40" y="103"/>
      <point x="128" y="-15"/>
    </contour>
    <contour>
      <point x="67" y="258" type="line"/>
      <point x="507" y="258" type="line"/>
      <point x="507" y="300" type="line"/>
      <point x="67" y="300" type="line"/>
    </contour>
  </outline>
</glyph>
<glyph name="f" format="2">
  <advance width="339"/>
  <unicode hex="0066"/>
  <note>
f
</note>
  <outline>
    <contour>
      <point x="128" y="0" type="line"/>
      <point x="170" y="0" type="line"/>
      <point x="170" y="597" type="line" smooth="yes"/>
      <point x="170" y="670"/>
      <point x="201" y="697"/>
      <point x="264" y="697" type="curve" smooth="yes"/>
      <point x="329" y="697" type="line"/>
      <point x="329" y="735" type="line"/>
      <point x="259" y="735" type="line" smooth="yes"/>
      <point x="216" y="735"/>
      <point x="184" y="726"/>
      <point x="160" y="701" type="curve" smooth="yes"/>
      <point x="135" y="674"/>
      <point x="128" y="643"/>
      <point x="128" y="601" type="curve" smooth="yes"/>
    </contour>
    <contour>
      <point x="30" y="498" type="line"/>
      <point x="329" y="498" type="line"/>
      <point x="329" y="540" type="line"/>
      <point x="30" y="540" type="line"/>
    </contour>
  </outline>
</glyph>
<glyph name="g" format="2">
  <advance width="576"/>
  <unicode hex="0067"/>
  <note>
g
</note>
  <outline>
    <contour>
      <point x="276" y="-255" type="curve" smooth="yes"/>
      <point x="415" y="-255"/>
      <point x="485" y="-194"/>
      <point x="501" y="-63" type="curve" smooth="yes"/>
      <point x="505" y="-33"/>
      <point x="506" y="-3"/>
      <point x="506" y="30" type="curve" smooth="yes"/>
      <point x="506" y="540" type="line"/>
      <point x="467" y="540" type="line"/>
      <point x="467" y="168" type="line"/>
      <point x="463" y="168" type="line"/>
      <point x="463" y="30" type="line" smooth="yes"/>
      <point x="463" y="-130"/>
      <point x="421" y="-212"/>
      <point x="276" y="-212" type="curve" smooth="yes"/>
      <point x="209" y="-212"/>
      <point x="137" y="-184"/>
      <point x="101" y="-110" type="curve"/>
      <point x="64" y="-135" type="line"/>
      <point x="113" y="-226"/>
      <point x="198" y="-255"/>
    </contour>
    <contour>
      <point x="275" y="-15" type="curve" smooth="yes"/>
      <point x="418" y="-15"/>
      <point x="499" y="110"/>
      <point x="499" y="271" type="curve" smooth="yes"/>
      <point x="499" y="435"/>
      <point x="418" y="555"/>
      <point x="267" y="555" type="curve" smooth="yes"/>
      <point x="122" y="555"/>
      <point x="40" y="430"/>
      <point x="40" y="271" type="curve" smooth="yes"/>
      <point x="40" y="109"/>
      <point x="122" y="-15"/>
    </contour>
    <contour>
      <point x="275" y="27" type="curve" smooth="yes"/>
      <point x="150" y="27"/>
      <point x="85" y="132"/>
      <point x="85" y="271" type="curve" smooth="yes"/>
      <point x="85" y="409"/>
      <point x="146" y="513"/>
      <point x="275" y="513" type="curve" smooth="yes"/>
      <point x="401" y="513"/>
      <point x="467" y="412"/>
      <point x="467" y="271" type="curve" smooth="yes"/>
      <point x="467" y="132"/>
      <point x="402" y="27"/>
    </contour>
  </outline>
</glyph>
<glyph name="j" format="2">
  <advance width="225"/>
  <unicode hex="006A"/>
  <note>
j
</note>
  <outline>
    <contour>
      <point x="-10" y="-240" type="line"/>
      <point x="23" y="-240" type="line" smooth="yes"/>
      <point x="110" y="-240"/>
      <point x="145" y="-202"/>
      <point x="145" y="-110" type="curve" smooth="yes"/>
      <point x="145" y="540" type="line"/>
      <point x="103" y="540" type="line"/>
      <point x="103" y="-115" type="line" smooth="yes"/>
      <point x="103" y="-177"/>
      <point x="66" y="-197"/>
      <point x="24" y="-197" type="curve" smooth="yes"/>
      <point x="-10" y="-197" type="line"/>
    </contour>
    <contour>
      <point x="103" y="646" type="line"/>
      <point x="145" y="646" type="line"/>
      <point x="145" y="710" type="line"/>
      <point x="103" y="710" type="line"/>
    </contour>
  </outline>
</glyph>
<glyph name="r" format="2">
  <advance width="335"/>
  <unicode hex="0072"/>
  <note>
r
</note>
  <outline>
    <contour>
      <point x="70" y="0" type="line"/>
      <point x="112" y="0" type="line"/>
      <point x="112" y="266" type="line" smooth="yes"/>
      <point x="112" y="332"/>
      <point x="112" y="415"/>
      <point x="169" y="468" type="curve" smooth="yes"/>
      <point x="212" y="508"/>
      <point x="265" y="510"/>
      <point x="310" y="500" type="curve"/>
      <point x="310" y="540" type="line"/>
      <point x="263" y="555"/>
      <point x="187" y="543"/>
      <point x="143" y="500" type="curve" smooth="yes"/>
      <point x="126" y="484"/>
      <point x="107" y="457"/>
      <point x="96" y="428" type="curve"/>
      <point x="109" y="411" type="line"/>
      <point x="109" y="540" type="line"/>
      <point x="70" y="540" type="line"/>
    </contour>
  </outline>
</glyph>
<glyph name="s" format="2">
  <advance width="514"/>
  <unicode hex="0073"/>
  <note>
s
</note>
  <outline>
    <contour>
      <point x="267" y="-14" type="curve" smooth="yes"/>
      <point x="388" y="-14"/>
      <point x="473" y="40"/>
      <point x="473" y="143" type="curve" smooth="yes"/>
      <point x="473" y="249"/>
      <point x="383" y="273"/>
      <point x="265" y="303" type="curve" smooth="yes"/>
      <point x="174" y="326"/>
      <point x="100" y="345"/>
      <point x="100" y="411" type="curve" smooth="yes"/>
      <point x="100" y="472"/>
      <point x="163" y="514"/>
      <point x="253" y="513" type="curve" smooth="yes"/>
      <point x="329" y="513"/>
      <point x="415" y="482"/>
      <point x="431" y="391" type="curve"/>
      <point x="474" y="399" type="line"/>
      <point x="465" y="488"/>
      <point x="378" y="555"/>
      <point x="256" y="555" type="curve" smooth="yes"/>
      <point x="152" y="555"/>
      <point x="56" y="506"/>
      <point x="56" y="409" type="curve" smooth="yes"/>
      <point x="56" y="318"/>
      <point x="140" y="294"/>
      <point x="253" y="263" type="curve" smooth="yes"/>
      <point x="366" y="232"/>
      <point x="428" y="217"/>
      <point x="428" y="145" type="curve" smooth="yes"/>
      <point x="428" y="69"/>
      <point x="360" y="28"/>
      <point x="268" y="28" type="curve" smooth="yes"/>
      <point x="190" y="28"/>
      <point x="104" y="58"/>
      <point x="83" y="138" type="curve"/>
      <point x="40" y="130" type="line"/>
      <point x="62" y="28"/>
      <point x="161" y="-14"/>
    </contour>
  </outline>
</glyph>
<glyph name="t" format="2">
  <advance width="379"/>
  <unicode hex="0074"/>
  <note>
t
</note>
  <outline>
    <contour>
      <point x="349" y="0" type="curve"/>
      <point x="349" y="40" type="line"/>
      <point x="265" y="26"/>
      <point x="214" y="34"/>
      <point x="190" y="82" type="curve" smooth="yes"/>
      <point x="177" y="107"/>
      <point x="179" y="132"/>
      <point x="179" y="179" type="curve" smooth="yes"/>
      <point x="179" y="690" type="line"/>
      <point x="137" y="690" type="line"/>
      <point x="137" y="179" type="line" smooth="yes"/>
      <point x="137" y="132"/>
      <point x="136" y="98"/>
      <point x="152" y="63" type="curve" smooth="yes"/>
      <point x="183" y="-5"/>
      <point x="268" y="-18"/>
    </contour>
    <contour>
      <point x="10" y="498" type="line"/>
      <point x="349" y="498" type="line"/>
      <point x="349" y="540" type="line"/>
      <point x="10" y="540" type="line"/>
    </contour>
  </outline>
</glyph>
<glyph name="w" format="2">
  <advance width="744"/>
  <unicode hex="0077"/>
  <note>
w
</note>
  <outline>
    <contour>
      <point x="185" y="0" type="line"/>
      <point x="229" y="0" type="line"/>
      <point x="372" y="469" type="line"/>
      <point x="515" y="0" type="line"/>
      <point x="559" y="0" type="line"/>
      <point x="724" y="540" type="line"/>
      <point x="681" y="540" type="line"/>
      <point x="537" y="72" type="line"/>
      <point x="394" y="540" type="line"/>
      <point x="350" y="540" type="line"/>
      <point x="207" y="72" type="line"/>
      <point x="64" y="540" type="line"/>
      <point x="20" y="540" type="line"/>
    </contour>
  </outline>
</glyph>
<glyph name="x" format="2">
  <advance width="509"/>
  <unicode hex="0078"/>
  <note>
x
</note>
  <outline>
    <contour>
      <point x="10" y="0" type="line"/>
      <point x="63" y="0" type="line"/>
      <point x="255" y="242" type="line"/>
      <point x="446" y="0" type="line"/>
      <point x="499" y="0" type="line"/>
      <point x="279" y="273" type="line"/>
      <point x="494" y="540" type="line"/>
      <point x="442" y="540" type="line"/>
      <point x="255" y="304" type="line"/>
      <point x="67" y="540" type="line"/>
      <point x="15" y="540" type="line"/>
      <point x="230" y="273" type="line"/>
    </contour>
  </outline>
</glyph>
<glyph name="y" format="2">
  <advance width="506"/>
  <unicode hex="0079"/>
  <note>
y
</note>
  <outline>
    <contour>
      <point x="151" y="-240" type="line"/>
      <point x="198" y="-240" type="line"/>
      <point x="481" y="540" type="line"/>
      <point x="436" y="540" type="line"/>
      <point x="246" y="16" type="line"/>
      <point x="278" y="16" type="line"/>
      <point x="66" y="540" type="line"/>
      <point x="20" y="540" type="line"/>
      <point x="257" y="-42" type="line"/>
      <point x="256" y="42" type="line"/>
    </contour>
  </outline>
</glyph>
<glyph name="z" format="2">
  <advance width="527"/>
  <unicode hex="007A"/>
  <note>
z
</note>
  <outline>
    <contour>
      <point x="20" y="0" type="line"/>
      <point x="463" y="0" type="line"/>
      <point x="463" y="44" type="line"/>
      <point x="97" y="44" type="line"/>
      <point x="487" y="523" type="line"/>
      <point x="487" y="540" type="line"/>
      <point x="44" y="540" type="line"/>
      <point x="44" y="496" type="line"/>
      <point x="410" y="496" type="line"/>
      <point x="20" y="15" type="line"/>
    </contour>
  </outline>
</glyph>
<glyph name="braceleft" format="2">
  <advance width="400"/>
  <unicode hex="007B"/>
  <outline>
    <contour>
      <point x="301" y="-222" type="curve" smooth="yes"/>
      <point x="355" y="-222" type="line"/>
      <point x="355" y="-180" type="line"/>
      <point x="301" y="-180" type="line" smooth="yes"/>
      <point x="266" y="-180"/>
      <point x="238" y="-152"/>
      <point x="238" y="-118" type="curve" smooth="yes"/>
      <point x="238" y="225" type="line" smooth="yes"/>
      <point x="238" y="246"/>
      <point x="232" y="267"/>
      <point x="219" y="285" type="curve" smooth="yes"/>
      <point x="187" y="330" type="line"/>
      <point x="219" y="375" type="line" smooth="yes"/>
      <point x="232" y="393"/>
      <point x="238" y="413"/>
      <point x="238" y="435" type="curve" smooth="yes"/>
      <point x="238" y="777" type="line" smooth="yes"/>
      <point x="238" y="812"/>
      <point x="266" y="840"/>
      <point x="301" y="840" type="curve" smooth="yes"/>
      <point x="355" y="840" type="line"/>
      <point x="355" y="882" type="line"/>
      <point x="301" y="882" type="line" smooth="yes"/>
      <point x="243" y="882"/>
      <point x="196" y="835"/>
      <point x="196" y="777" type="curve" smooth="yes"/>
      <point x="196" y="435" type="line" smooth="yes"/>
      <point x="196" y="422"/>
      <point x="192" y="410"/>
      <point x="185" y="399" type="curve" smooth="yes"/>
      <point x="144" y="342" type="line" smooth="yes"/>
      <point x="139" y="335"/>
      <point x="139" y="325"/>
      <point x="144" y="318" type="curve" smooth="yes"/>
      <point x="185" y="261" type="line" smooth="yes"/>
      <point x="192" y="250"/>
      <point x="196" y="238"/>
      <point x="196" y="225" type="curve" smooth="yes"/>
      <point x="196" y="-118" type="line" smooth="yes"/>
      <point x="196" y="-175"/>
      <point x="243" y="-222"/>
    </contour>
  </outline>
</glyph>
<glyph name="sterling" format="2">
  <advance width="565"/>
  <unicode hex="00A3"/>
  <outline>
    <contour>
      <point x="23" y="0" type="line"/>
      <point x="521" y="0" type="line"/>
      <point x="521" y="42" type="line"/>
      <point x="210" y="42" type="line"/>
      <point x="210" y="550" type="line" smooth="yes"/>
      <point x="210" y="637"/>
      <point x="264" y="693"/>
      <point x="346" y="693" type="curve" smooth="yes"/>
      <point x="415" y="693"/>
      <point x="461" y="648"/>
      <point x="494" y="548" type="curve"/>
      <point x="534" y="561" type="line"/>
      <point x="495" y="678"/>
      <point x="434" y="735"/>
      <point x="347" y="735" type="curve" smooth="yes"/>
      <point x="244" y="735"/>
      <point x="168" y="660"/>
      <point x="168" y="550" type="curve" smooth="yes"/>
      <point x="168" y="111" type="line" smooth="yes"/>
      <point x="168" y="73"/>
      <point x="137" y="42"/>
      <point x="99" y="42" type="curve" smooth="yes"/>
      <point x="23" y="42" type="line"/>
    </contour>
    <contour>
      <point x="23" y="347" type="line"/>
      <point x="412" y="347" type="line"/>
      <point x="412" y="389" type="line"/>
      <point x="23" y="389" type="line"/>
    </contour>
  </outline>
</glyph>
<glyph name="currency" format="2">
  <advance width="622"/>
  <unicode hex="00A4"/>
  <outline>
    <contour>
      <point x="311" y="98" type="curve" smooth="yes"/>
      <point x="456" y="98"/>
      <point x="574" y="216"/>
      <point x="574" y="361" type="curve" smooth="yes"/>
      <point x="574" y="505"/>
      <point x="456" y="623"/>
      <point x="311" y="623" type="curve" smooth="yes"/>
      <point x="167" y="623"/>
      <point x="49" y="505"/>
      <point x="49" y="361" type="curve" smooth="yes"/>
      <point x="49" y="216"/>
      <point x="167" y="98"/>
    </contour>
    <contour>
      <point x="60" y="80" type="line"/>
      <point x="156" y="176" type="line"/>
      <point x="126" y="206" type="line"/>
      <point x="30" y="110" type="line"/>
    </contour>
    <contour>
      <point x="127" y="514" type="line"/>
      <point x="156" y="544" type="line"/>
      <point x="60" y="640" type="line"/>
      <point x="30" y="611" type="line"/>
    </contour>
    <contour>
      <point x="562" y="80" type="line"/>
      <point x="592" y="110" type="line"/>
      <point x="496" y="206" type="line"/>
      <point x="466" y="176" type="line"/>
    </contour>
    <contour>
      <point x="311" y="140" type="curve" smooth="yes"/>
      <point x="189" y="140"/>
      <point x="91" y="241"/>
      <point x="91" y="360" type="curve" smooth="yes"/>
      <point x="91" y="482"/>
      <point x="189" y="581"/>
      <point x="311" y="581" type="curve" smooth="yes"/>
      <point x="430" y="581"/>
      <point x="532" y="482"/>
      <point x="532" y="360" type="curve" smooth="yes"/>
      <point x="532" y="241"/>
      <point x="433" y="140"/>
    </contour>
    <contour>
      <point x="495" y="514" type="line"/>
      <point x="592" y="611" type="line"/>
      <point x="562" y="640" type="line"/>
      <point x="466" y="544" type="line"/>
    </contour>
  </outline>
</glyph>
<glyph name="section" format="2">
  <advance width="514"/>
  <unicode hex="00A7"/>
  <outline>
    <contour>
      <point x="271" y="-164" type="curve" smooth="yes"/>
      <point x="377" y="-164"/>
      <point x="463" y="-110"/>
      <point x="463" y="-7" type="curve" smooth="yes"/>
      <point x="463" y="99"/>
      <point x="373" y="123"/>
      <point x="255" y="153" type="curve" smooth="yes"/>
      <point x="164" y="176"/>
      <point x="90" y="195"/>
      <point x="90" y="261" type="curve" smooth="yes"/>
      <point x="90" y="322"/>
      <point x="153" y="364"/>
      <point x="233" y="383" type="curve"/>
      <point x="236" y="391" type="line"/>
      <point x="142" y="405"/>
      <point x="46" y="356"/>
      <point x="46" y="259" type="curve" smooth="yes"/>
      <point x="46" y="168"/>
      <point x="130" y="144"/>
      <point x="243" y="113" type="curve" smooth="yes"/>
      <point x="356" y="82"/>
      <point x="418" y="67"/>
      <point x="418" y="-5" type="curve" smooth="yes"/>
      <point x="418" y="-81"/>
      <point x="349" y="-122"/>
      <point x="272" y="-122" type="curve" smooth="yes"/>
      <point x="209" y="-122"/>
      <point x="125" y="-93"/>
      <point x="103" y="-12" type="curve"/>
      <point x="60" y="-20" type="line"/>
      <point x="83" y="-124"/>
      <point x="181" y="-164"/>
    </contour>
    <contour>
      <point x="307" y="116" type="line"/>
      <point x="398" y="86"/>
      <point x="483" y="140"/>
      <point x="483" y="243" type="curve" smooth="yes"/>
      <point x="483" y="349"/>
      <point x="393" y="373"/>
      <point x="275" y="403" type="curve" smooth="yes"/>
      <point x="184" y="426"/>
      <point x="110" y="445"/>
      <point x="110" y="511" type="curve" smooth="yes"/>
      <point x="110" y="572"/>
      <point x="174" y="613"/>
      <point x="248" y="613" type="curve" smooth="yes"/>
      <point x="309" y="613"/>
      <point x="394" y="584"/>
      <point x="411" y="491" type="curve"/>
      <point x="454" y="499" type="line"/>
      <point x="444" y="590"/>
      <point x="358" y="655"/>
      <point x="253" y="655" type="curve" smooth="yes"/>
      <point x="163" y="655"/>
      <point x="66" y="606"/>
      <point x="66" y="509" type="curve" smooth="yes"/>
      <point x="66" y="418"/>
      <point x="150" y="394"/>
      <point x="263" y="363" type="curve" smooth="yes"/>
      <point x="376" y="332"/>
      <point x="438" y="317"/>
      <point x="438" y="245" type="curve" smooth="yes"/>
      <point x="438" y="169"/>
      <point x="370" y="128"/>
      <point x="308" y="128" type="curve"/>
    </contour>
  </outline>
</glyph>
<glyph name="registered" format="2">
  <advance width="605"/>
  <unicode hex="00AE"/>
  <outline>
    <contour>
      <point x="303" y="297" type="curve" smooth="yes"/>
      <point x="431" y="297"/>
      <point x="535" y="401"/>
      <point x="535" y="530" type="curve" smooth="yes"/>
      <point x="535" y="658"/>
      <point x="431" y="762"/>
      <point x="303" y="762" type="curve" smooth="yes"/>
      <point x="174" y="762"/>
      <point x="70" y="658"/>
      <point x="70" y="530" type="curve" smooth="yes"/>
      <point x="70" y="401"/>
      <point x="174" y="297"/>
    </contour>
    <contour>
      <point x="303" y="339" type="curve" smooth="yes"/>
      <point x="197" y="339"/>
      <point x="112" y="424"/>
      <point x="112" y="530" type="curve" smooth="yes"/>
      <point x="112" y="635"/>
      <point x="197" y="720"/>
      <point x="303" y="720" type="curve" smooth="yes"/>
      <point x="408" y="720"/>
      <point x="493" y="635"/>
      <point x="493" y="530" type="curve" smooth="yes"/>
      <point x="493" y="424"/>
      <point x="408" y="339"/>
    </contour>
    <contour>
      <point x="222" y="417" type="line"/>
      <point x="258" y="417" type="line"/>
      <point x="258" y="499" type="line"/>
      <point x="318" y="499" type="line"/>
      <point x="358" y="417" type="line"/>
      <point x="399" y="417" type="line"/>
      <point x="355" y="506" type="line"/>
      <point x="382" y="518"/>
      <point x="399" y="547"/>
      <point x="399" y="573" type="curve" smooth="yes"/>
      <point x="399" y="613"/>
      <point x="363" y="647"/>
      <point x="324" y="647" type="curve" smooth="yes"/>
      <point x="222" y="647" type="line"/>
    </contour>
    <contour>
      <point x="258" y="533" type="line"/>
      <point x="258" y="613" type="line"/>
      <point x="323" y="613" type="line" smooth="yes"/>
      <point x="340" y="613"/>
      <point x="362" y="597"/>
      <point x="362" y="573" type="curve" smooth="yes"/>
      <point x="362" y="551"/>
      <point x="343" y="533"/>
      <point x="323" y="533" type="curve" smooth="yes"/>
    </contour>
  </outline>
</glyph>
<glyph name="plusminus" format="2">
  <advance width="600"/>
  <unicode hex="00B1"/>
  <outline>
    <contour>
      <point x="279" y="220" type="line"/>
      <point x="321" y="220" type="line"/>
      <point x="321" y="359" type="line"/>
      <point x="540" y="359" type="line"/>
      <point x="540" y="401" type="line"/>
      <point x="321" y="401" type="line"/>
      <point x="321" y="540" type="line"/>
      <point x="279" y="540" type="line"/>
      <point x="279" y="401" type="line"/>
      <point x="60" y="401" type="line"/>
      <point x="60" y="359" type="line"/>
      <point x="279" y="359" type="line"/>
    </contour>
    <contour>
      <point x="60" y="88" type="line"/>
      <point x="540" y="88" type="line"/>
      <point x="540" y="130" type="line"/>
      <point x="60" y="130" type="line"/>
    </contour>
  </outline>
</glyph>
<glyph name="twosuperior" format="2">
  <advance width="392"/>
  <unicode hex="00B2"/>
  <outline>
    <contour>
      <point x="50" y="270" type="line"/>
      <point x="342" y="270" type="line"/>
      <point x="342" y="310" type="line"/>
      <point x="68" y="310" type="line"/>
      <point x="80" y="280" type="line"/>
      <point x="280" y="462" type="line" smooth="yes"/>
      <point x="322" y="500"/>
      <point x="342" y="532"/>
      <point x="342" y="587" type="curve" smooth="yes"/>
      <point x="342" y="666"/>
      <point x="280" y="730"/>
      <point x="198" y="730" type="curve" smooth="yes"/>
      <point x="116" y="730"/>
      <point x="53" y="669"/>
      <point x="53" y="588" type="curve"/>
      <point x="95" y="588" type="line"/>
      <point x="94" y="642"/>
      <point x="139" y="691"/>
      <point x="198" y="691" type="curve" smooth="yes"/>
      <point x="255" y="691"/>
      <point x="300" y="645"/>
      <point x="300" y="587" type="curve" smooth="yes"/>
      <point x="300" y="555"/>
      <point x="292" y="527"/>
      <point x="256" y="495" type="curve" smooth="yes"/>
      <point x="51" y="308" type="line"/>
    </contour>
  </outline>
</glyph>
<glyph name="threesuperior" format="2">
  <advance width="380"/>
  <unicode hex="00B3"/>
  <outline>
    <contour>
      <point x="178" y="260" type="curve" smooth="yes"/>
      <point x="262" y="260"/>
      <point x="320" y="319"/>
      <point x="320" y="406" type="curve" smooth="yes"/>
      <point x="320" y="504"/>
      <point x="247" y="567"/>
      <point x="143" y="545" type="curve"/>
      <point x="145" y="518" type="line"/>
      <point x="316" y="680" type="line"/>
      <point x="316" y="720" type="line"/>
      <point x="58" y="720" type="line"/>
      <point x="58" y="681" type="line"/>
      <point x="307" y="681" type="line"/>
      <point x="295" y="712" type="line"/>
      <point x="103" y="532" type="line"/>
      <point x="124" y="500" type="line"/>
      <point x="141" y="507"/>
      <point x="160" y="512"/>
      <point x="177" y="512" type="curve" smooth="yes"/>
      <point x="238" y="512"/>
      <point x="278" y="470"/>
      <point x="278" y="406" type="curve" smooth="yes"/>
      <point x="278" y="343"/>
      <point x="241" y="301"/>
      <point x="178" y="300" type="curve" smooth="yes"/>
      <point x="133" y="299"/>
      <point x="95" y="323"/>
      <point x="79" y="370" type="curve"/>
      <point x="40" y="358" type="line"/>
      <point x="59" y="297"/>
      <point x="112" y="260"/>
    </contour>
  </outline>
</glyph>
<glyph name="AE" format="2">
  <advance width="905"/>
  <unicode hex="00C6"/>
  <outline>
    <contour>
      <point x="20" y="0" type="line"/>
      <point x="65" y="0" type="line"/>
      <point x="122" y="157" type="line"/>
      <point x="415" y="157" type="line"/>
      <point x="415" y="0" type="line"/>
      <point x="855" y="0" type="line"/>
      <point x="855" y="42" type="line"/>
      <point x="457" y="42" type="line"/>
      <point x="457" y="339" type="line"/>
      <point x="795" y="339" type="line"/>
      <point x="795" y="381" type="line"/>
      <point x="457" y="381" type="line"/>
      <point x="457" y="678" type="line"/>
      <point x="855" y="678" type="line"/>
      <point x="855" y="720" type="line"/>
      <point x="282" y="720" type="line"/>
    </contour>
    <contour>
      <point x="136" y="197" type="line"/>
      <point x="311" y="678" type="line"/>
      <point x="415" y="678" type="line"/>
      <point x="415" y="197" type="line"/>
    </contour>
  </outline>
</glyph>
<glyph name="ae" format="2">
  <advance width="946"/>
  <unicode hex="00E6"/>
  <outline>
    <contour>
      <point x="674" y="-15" type="curve" smooth="yes"/>
      <point x="773" y="-15"/>
      <point x="852" y="35"/>
      <point x="893" y="129" type="curve"/>
      <point x="860" y="149" type="line"/>
      <point x="822" y="66"/>
      <point x="755" y="27"/>
      <point x="674" y="27" type="curve" smooth="yes"/>
      <point x="547" y="27"/>
      <point x="482" y="124"/>
      <point x="482" y="270" type="curve" smooth="yes"/>
      <point x="482" y="414"/>
      <point x="546" y="513"/>
      <point x="674" y="513" type="curve" smooth="yes"/>
      <point x="799" y="513"/>
      <point x="859" y="420"/>
      <point x="863" y="272" type="curve"/>
      <point x="863" y="258" type="line"/>
      <point x="906" y="258" type="line"/>
      <point x="906" y="436"/>
      <point x="830" y="555"/>
      <point x="676" y="555" type="curve" smooth="yes"/>
      <point x="524" y="555"/>
      <point x="440" y="440"/>
      <point x="440" y="271" type="curve" smooth="yes"/>
      <point x="440" y="104"/>
      <point x="522" y="-15"/>
    </contour>
    <contour>
      <point x="225" y="27" type="curve" smooth="yes"/>
      <point x="138" y="27"/>
      <point x="84" y="68"/>
      <point x="84" y="145" type="curve" smooth="yes"/>
      <point x="84" y="260"/>
      <point x="204" y="260"/>
      <point x="267" y="260" type="curve" smooth="yes"/>
      <point x="442" y="260" type="line"/>
      <point x="440" y="280" type="line"/>
      <point x="440" y="273"/>
      <point x="443" y="191"/>
      <point x="416" y="134" type="curve" smooth="yes"/>
      <point x="386" y="69"/>
      <point x="313" y="27"/>
    </contour>
    <contour>
      <point x="231" y="-15" type="curve" smooth="yes"/>
      <point x="325" y="-15"/>
      <point x="430" y="22"/>
      <point x="469" y="150" type="curve"/>
      <point x="482" y="338" type="line"/>
      <point x="482" y="366"/>
      <point x="480" y="391"/>
      <point x="473" y="417" type="curve" smooth="yes"/>
      <point x="450" y="504"/>
      <point x="385" y="555"/>
      <point x="276" y="555" type="curve" smooth="yes"/>
      <point x="173" y="555"/>
      <point x="82" y="510"/>
      <point x="61" y="411" type="curve"/>
      <point x="105" y="397" type="line"/>
      <point x="126" y="482"/>
      <point x="195" y="513"/>
      <point x="277" y="513" type="curve" smooth="yes"/>
      <point x="402" y="513"/>
      <point x="446" y="435"/>
      <point x="440" y="294" type="curve"/>
      <point x="441" y="300" type="line"/>
      <point x="267" y="300" type="line" smooth="yes"/>
      <point x="206" y="300"/>
      <point x="40" y="300"/>
      <point x="40" y="146" type="curve" smooth="yes"/>
      <point x="40" y="45"/>
      <point x="112" y="-15"/>
    </contour>
    <contour>
      <point x="465" y="258" type="line"/>
      <point x="881" y="258" type="line"/>
      <point x="881" y="300" type="line"/>
      <point x="465" y="300" type="line"/>
    </contour>
  </outline>
</glyph>
<glyph name="eogonek" format="2">
  <advance width="573"/>
  <unicode hex="0119"/>
  <outline>
    <contour>
      <point x="426" y="-232" type="curve" smooth="yes"/>
      <point x="444" y="-224"/>
      <point x="459" y="-213"/>
      <point x="471" y="-201" type="curve"/>
      <point x="445" y="-172" type="line"/>
      <point x="421" y="-194"/>
      <point x="386" y="-212"/>
      <point x="359" y="-185" type="curve" smooth="yes"/>
      <point x="345" y="-171"/>
      <point x="346" y="-153"/>
      <point x="351" y="-134" type="curve" smooth="yes"/>
      <point x="358" y="-108"/>
      <point x="375" y="-81"/>
      <point x="392" y="-56" type="curve" smooth="yes"/>
      <point x="408" y="-33"/>
      <point x="488" y="59"/>
      <point x="516" y="121" type="curve"/>
      <point x="474" y="118" type="line"/>
      <point x="445" y="52"/>
      <point x="375" y="-13"/>
      <point x="355" y="-40" type="curve" smooth="yes"/>
      <point x="335" y="-66"/>
      <point x="319" y="-94"/>
      <point x="311" y="-123" type="curve" smooth="yes"/>
      <point x="301" y="-159"/>
      <point x="306" y="-191"/>
      <point x="330" y="-215" type="curve" smooth="yes"/>
      <point x="353" y="-238"/>
      <point x="390" y="-247"/>
    </contour>
    <component base="e"/>
  </outline>
</glyph>
<glyph name="florin" format="2">
  <advance width="718"/>
  <unicode hex="0192"/>
  <outline>
    <contour>
      <point x="145" y="-15" type="curve" smooth="yes"/>
      <point x="196" y="-15"/>
      <point x="308" y="4"/>
      <point x="337" y="181" type="curve" smooth="yes"/>
      <point x="398" y="554" type="line" smooth="yes"/>
      <point x="419" y="680"/>
      <point x="517" y="693"/>
      <point x="561" y="693" type="curve" smooth="yes"/>
      <point x="620" y="693"/>
      <point x="666" y="669"/>
      <point x="666" y="669" type="curve"/>
      <point x="687" y="705" type="line" smooth="yes"/>
      <point x="689" y="708"/>
      <point x="631" y="735"/>
      <point x="564" y="735" type="curve" smooth="yes"/>
      <point x="515" y="735"/>
      <point x="383" y="721"/>
      <point x="357" y="561" type="curve" smooth="yes"/>
      <point x="296" y="188" type="line" smooth="yes"/>
      <point x="273" y="48"/>
      <point x="194" y="27"/>
      <point x="146" y="27" type="curve" smooth="yes"/>
      <point x="93" y="27"/>
      <point x="43" y="52"/>
      <point x="41" y="52" type="curve"/>
      <point x="23" y="14" type="line"/>
      <point x="25" y="13"/>
      <point x="83" y="-15"/>
    </contour>
    <contour>
      <point x="123" y="339" type="line"/>
      <point x="616" y="339" type="line"/>
      <point x="616" y="381" type="line"/>
      <point x="123" y="381" type="line"/>
    </contour>
  </outline>
</glyph>
<glyph name="acutecomb" format="2">
  <unicode hex="0301"/>
  <outline>
    <contour>
      <point x="137" y="786" type="line"/>
      <point x="337" y="879" type="line"/>
      <point x="320" y="914" type="line"/>
      <point x="120" y="821" type="line"/>
    </contour>
  </outline>
</glyph>
<glyph name="hungarumlautcomb" format="2">
  <unicode hex="030B"/>
  <outline>
    <contour>
      <point x="282" y="793" type="line"/>
      <point x="377" y="886" type="line"/>
      <point x="350" y="914" type="line"/>
      <point x="255" y="821" type="line"/>
    </contour>
    <contour>
      <point x="147" y="793" type="line"/>
      <point x="242" y="886" type="line"/>
      <point x="215" y="914" type="line"/>
      <point x="120" y="821" type="line"/>
    </contour>
  </outline>
</glyph>
<glyph name="caroncomb" format="2">
  <unicode hex="030C"/>
  <outline>
    <contour>
      <point x="243" y="786" type="line"/>
      <point x="366" y="877" type="line"/>
      <point x="343" y="909" type="line"/>
      <point x="243" y="835" type="line"/>
      <point x="143" y="909" type="line"/>
      <point x="120" y="877" type="line"/>
    </contour>
  </outline>
</glyph>
<glyph name="cedillacomb" format="2">
  <unicode hex="0327"/>
  <outline>
    <contour>
      <point x="180" y="-239" type="curve" smooth="yes"/>
      <point x="228" y="-239"/>
      <point x="268" y="-201"/>
      <point x="268" y="-153" type="curve" smooth="yes"/>
      <point x="268" y="-110"/>
      <point x="242" y="-85"/>
      <point x="208" y="-71" type="curve"/>
      <point x="237" y="7" type="line"/>
      <point x="195" y="7" type="line"/>
      <point x="157" y="-96" type="line"/>
      <point x="190" y="-107"/>
      <point x="224" y="-117"/>
      <point x="224" y="-151" type="curve" smooth="yes"/>
      <point x="224" y="-175"/>
      <point x="207" y="-198"/>
      <point x="177" y="-198" type="curve" smooth="yes"/>
      <point x="165" y="-198"/>
      <point x="149" y="-194"/>
      <point x="134" y="-188" type="curve"/>
      <point x="120" y="-225" type="line"/>
      <point x="138" y="-233"/>
      <point x="158" y="-239"/>
    </contour>
  </outline>
</glyph>
<glyph name="ogonekcomb" format="2">
  <unicode hex="0328"/>
  <outline>
    <contour>
      <point x="208" y="-242" type="curve" smooth="yes"/>
      <point x="235" y="-242"/>
      <point x="263" y="-229"/>
      <point x="285" y="-201" type="curve"/>
      <point x="260" y="-173" type="line"/>
      <point x="245" y="-190"/>
      <point x="226" y="-202"/>
      <point x="208" y="-202" type="curve" smooth="yes"/>
      <point x="185" y="-202"/>
      <point x="164" y="-182"/>
      <point x="164" y="-152" type="curve" smooth="yes"/>
      <point x="164" y="-103"/>
      <point x="218" y="-40"/>
      <point x="279" y="0" type="curve"/>
      <point x="248" y="33" type="line"/>
      <point x="178" y="-22"/>
      <point x="120" y="-92"/>
      <point x="120" y="-152" type="curve" smooth="yes"/>
      <point x="120" y="-200"/>
      <point x="161" y="-242"/>
    </contour>
  </outline>
</glyph>
<glyph name="slashshortcomb" format="2">
  <unicode hex="0337"/>
  <outline>
    <contour>
      <point x="49" y="225" type="line"/>
      <point x="312" y="377" type="line"/>
      <point x="312" y="426" type="line"/>
      <point x="49" y="275" type="line"/>
    </contour>
  </outline>
</glyph>
<glyph name="slashlongcomb" format="2">
  <unicode hex="0338"/>
  <outline>
    <contour>
      <point x="30" y="0" type="line"/>
      <point x="722" y="691" type="line"/>
      <point x="692" y="720" type="line"/>
      <point x="0" y="30" type="line"/>
    </contour>
  </outline>
</glyph>
<glyph name="tonos" format="2">
  <advance width="600"/>
  <unicode hex="0384"/>
  <outline>
    <contour>
      <point x="245" y="640" type="line"/>
      <point x="288" y="640" type="line"/>
      <point x="355" y="860" type="line"/>
      <point x="312" y="860" type="line"/>
    </contour>
  </outline>
</glyph>
<glyph name="Sigma" format="2">
  <advance width="660"/>
  <unicode hex="03A3"/>
  <outline>
    <contour>
      <point x="70" y="0" type="line"/>
      <point x="571" y="0" type="line"/>
      <point x="571" y="42" type="line"/>
      <point x="141" y="42" type="line"/>
      <point x="448" y="352" type="line"/>
      <point x="448" y="368" type="line"/>
      <point x="141" y="678" type="line"/>
      <point x="590" y="678" type="line"/>
      <point x="590" y="720" type="line"/>
      <point x="70" y="720" type="line"/>
      <point x="70" y="678" type="line"/>
      <point x="385" y="360" type="line"/>
      <point x="70" y="40" type="line"/>
    </contour>
  </outline>
</glyph>
<glyph name="Psi" format="2">
  <advance width="690"/>
  <unicode hex="03A8"/>
  <outline>
    <contour>
      <point x="324" y="0" type="line"/>
      <point x="366" y="0" type="line"/>
      <point x="366" y="187" type="line"/>
      <point x="485" y="189"/>
      <point x="565" y="258"/>
      <point x="601" y="349" type="curve" smooth="yes"/>
      <point x="620" y="397"/>
      <point x="620" y="435"/>
      <point x="620" y="455" type="curve" smooth="yes"/>
      <point x="620" y="720" type="line"/>
      <point x="578" y="720" type="line"/>
      <point x="578" y="507" type="line" smooth="yes"/>
      <point x="578" y="482"/>
      <point x="578" y="437"/>
      <point x="568" y="395" type="curve" smooth="yes"/>
      <point x="545" y="299"/>
      <point x="472" y="227"/>
      <point x="366" y="227" type="curve"/>
      <point x="366" y="720" type="line"/>
      <point x="324" y="720" type="line"/>
      <point x="324" y="227" type="line"/>
      <point x="218" y="228"/>
      <point x="145" y="299"/>
      <point x="122" y="395" type="curve" smooth="yes"/>
      <point x="112" y="437"/>
      <point x="112" y="482"/>
      <point x="112" y="507" type="curve" smooth="yes"/>
      <point x="112" y="720" type="line"/>
      <point x="70" y="720" type="line"/>
      <point x="70" y="455" type="line" smooth="yes"/>
      <point x="70" y="435"/>
      <point x="70" y="397"/>
      <point x="89" y="349" type="curve" smooth="yes"/>
      <point x="125" y="259"/>
      <point x="203" y="190"/>
      <point x="324" y="187" type="curve"/>
    </contour>
  </outline>
</glyph>
<glyph name="beta" format="2">
  <advance width="543"/>
  <unicode hex="03B2"/>
  <outline>
    <contour>
      <point x="70" y="-240" type="line"/>
      <point x="111" y="-240" type="line"/>
      <point x="111" y="59" type="line"/>
      <point x="148" y="14"/>
      <point x="209" y="-15"/>
      <point x="291" y="-15" type="curve" smooth="yes"/>
      <point x="436" y="-15"/>
      <point x="514" y="76"/>
      <point x="514" y="193" type="curve" smooth="yes"/>
      <point x="514" y="327"/>
      <point x="413" y="386"/>
      <point x="344" y="392" type="curve"/>
      <point x="413" y="409"/>
      <point x="448" y="472"/>
      <point x="448" y="552" type="curve" smooth="yes"/>
      <point x="448" y="670"/>
      <point x="373" y="735"/>
      <point x="259" y="735" type="curve" smooth="yes"/>
      <point x="165" y="735"/>
      <point x="108" y="691"/>
      <point x="84" y="628" type="curve" smooth="yes"/>
      <point x="75" y="605"/>
      <point x="70" y="574"/>
      <point x="70" y="540" type="curve" smooth="yes"/>
    </contour>
    <contour>
      <point x="293" y="28" type="curve" smooth="yes"/>
      <point x="212" y="28"/>
      <point x="141" y="70"/>
      <point x="123" y="132" type="curve" smooth="yes"/>
      <point x="118" y="150"/>
      <point x="115" y="175"/>
      <point x="115" y="204" type="curve" smooth="yes"/>
      <point x="115" y="521" type="line" smooth="yes"/>
      <point x="115" y="550"/>
      <point x="117" y="580"/>
      <point x="125" y="606" type="curve" smooth="yes"/>
      <point x="144" y="666"/>
      <point x="198" y="693"/>
      <point x="260" y="693" type="curve" smooth="yes"/>
      <point x="349" y="693"/>
      <point x="403" y="639"/>
      <point x="403" y="553" type="curve" smooth="yes"/>
      <point x="403" y="457"/>
      <point x="335" y="416"/>
      <point x="259" y="406" type="curve"/>
      <point x="259" y="364" type="line"/>
      <point x="389" y="360"/>
      <point x="469" y="299"/>
      <point x="469" y="195" type="curve" smooth="yes"/>
      <point x="469" y="96"/>
      <point x="396" y="28"/>
    </contour>
  </outline>
</glyph>
<glyph name="zeta" format="2">
  <advance width="490"/>
  <unicode hex="03B6"/>
  <outline>
    <contour>
      <point x="429" y="-120" type="curve"/>
      <point x="470" y="-120" type="line"/>
      <point x="484" y="-13"/>
      <point x="434" y="25"/>
      <point x="371" y="35" type="curve" smooth="yes"/>
      <point x="340" y="40"/>
      <point x="294" y="40"/>
      <point x="287" y="40" type="curve" smooth="yes"/>
      <point x="151" y="40"/>
      <point x="84" y="71"/>
      <point x="84" y="176" type="curve" smooth="yes"/>
      <point x="84" y="243"/>
      <point x="111" y="305"/>
      <point x="233" y="433" type="curve" smooth="yes"/>
      <point x="275" y="477"/>
      <point x="400" y="605"/>
      <point x="470" y="678" type="curve"/>
      <point x="470" y="720" type="line"/>
      <point x="70" y="720" type="line"/>
      <point x="70" y="678" type="line"/>
      <point x="410" y="678" type="line"/>
      <point x="308" y="574"/>
      <point x="215" y="475"/>
      <point x="188" y="447" type="curve" smooth="yes"/>
      <point x="59" y="308"/>
      <point x="40" y="239"/>
      <point x="40" y="173" type="curve" smooth="yes"/>
      <point x="40" y="5"/>
      <point x="164" y="4"/>
      <point x="271" y="0" type="curve" smooth="yes"/>
      <point x="400" y="-4"/>
      <point x="438" y="-10"/>
    </contour>
  </outline>
</glyph>
<glyph name="iota" format="2">
  <advance width="322"/>
  <unicode hex="03B9"/>
  <outline>
    <contour>
      <point x="197" y="-5" type="curve" smooth="yes"/>
      <point x="226" y="-9"/>
      <point x="260" y="-7"/>
      <point x="292" y="0" type="curve"/>
      <point x="292" y="40" type="line"/>
      <point x="265" y="34"/>
      <point x="232" y="33"/>
      <point x="202" y="36" type="curve" smooth="yes"/>
      <point x="170" y="40"/>
      <point x="148" y="52"/>
      <point x="133" y="81" type="curve" smooth="yes"/>
      <point x="119" y="109"/>
      <point x="122" y="132"/>
      <point x="122" y="179" type="curve" smooth="yes"/>
      <point x="122" y="540" type="line"/>
      <point x="80" y="540" type="line"/>
      <point x="80" y="179" type="line" smooth="yes"/>
      <point x="80" y="132"/>
      <point x="79" y="98"/>
      <point x="95" y="63" type="curve" smooth="yes"/>
      <point x="114" y="22"/>
      <point x="150" y="1"/>
    </contour>
  </outline>
</glyph>
<glyph name="sigma" format="2">
  <advance width="584"/>
  <unicode hex="03C3"/>
  <outline>
    <contour>
      <point x="287" y="-15" type="curve" smooth="yes"/>
      <point x="439" y="-15"/>
      <point x="534" y="100"/>
      <point x="534" y="263" type="curve" smooth="yes"/>
      <point x="534" y="379"/>
      <point x="486" y="472"/>
      <point x="408" y="512" type="curve"/>
      <point x="386" y="498" type="line"/>
      <point x="564" y="498" type="line"/>
      <point x="564" y="540" type="line"/>
      <point x="327" y="540" type="line" smooth="yes"/>
      <point x="303" y="540"/>
      <point x="271" y="540"/>
      <point x="247" y="537" type="curve" smooth="yes"/>
      <point x="118" y="519"/>
      <point x="40" y="413"/>
      <point x="40" y="263" type="curve" smooth="yes"/>
      <point x="40" y="100"/>
      <point x="135" y="-15"/>
    </contour>
    <contour>
      <point x="287" y="27" type="curve" smooth="yes"/>
      <point x="159" y="27"/>
      <point x="85" y="120"/>
      <point x="85" y="263" type="curve" smooth="yes"/>
      <point x="85" y="398"/>
      <point x="153" y="499"/>
      <point x="287" y="498" type="curve" smooth="yes"/>
      <point x="419" y="497"/>
      <point x="489" y="402"/>
      <point x="489" y="263" type="curve" smooth="yes"/>
      <point x="489" y="122"/>
      <point x="419" y="27"/>
    </contour>
  </outline>
</glyph>
<glyph name="omega" format="2">
  <advance width="762"/>
  <unicode hex="03C9"/>
  <outline>
    <contour>
      <point x="235" y="-16" type="curve" smooth="yes"/>
      <point x="313" y="-16"/>
      <point x="376" y="25"/>
      <point x="389" y="114" type="curve"/>
      <point x="373" y="114" type="line"/>
      <point x="386" y="25"/>
      <point x="449" y="-16"/>
      <point x="528" y="-16" type="curve" smooth="yes"/>
      <point x="658" y="-16"/>
      <point x="722" y="84"/>
      <point x="722" y="235" type="curve" smooth="yes"/>
      <point x="722" y="382"/>
      <point x="667" y="485"/>
      <point x="530" y="555" type="curve"/>
      <point x="508" y="516" type="line"/>
      <point x="627" y="455"/>
      <point x="677" y="369"/>
      <point x="677" y="239" type="curve" smooth="yes"/>
      <point x="677" y="121"/>
      <point x="631" y="26"/>
      <point x="526" y="26" type="curve" smooth="yes"/>
      <point x="421" y="26"/>
      <point x="402" y="112"/>
      <point x="402" y="201" type="curve" smooth="yes"/>
      <point x="402" y="344" type="line"/>
      <point x="360" y="344" type="line"/>
      <point x="360" y="201" type="line" smooth="yes"/>
      <point x="360" y="109"/>
      <point x="340" y="26"/>
      <point x="236" y="26" type="curve" smooth="yes"/>
      <point x="133" y="26"/>
      <point x="85" y="118"/>
      <point x="85" y="239" type="curve" smooth="yes"/>
      <point x="85" y="367"/>
      <point x="133" y="454"/>
      <point x="254" y="516" type="curve"/>
      <point x="232" y="555" type="line"/>
      <point x="97" y="486"/>
      <point x="40" y="384"/>
      <point x="40" y="235" type="curve" smooth="yes"/>
      <point x="40" y="86"/>
      <point x="102" y="-16"/>
    </contour>
  </outline>
</glyph>
<glyph name="Dje-cy" format="2">
  <advance width="626"/>
  <unicode hex="0402"/>
  <outline>
    <contour>
      <point x="70" y="0" type="line"/>
      <point x="112" y="0" type="line"/>
      <point x="112" y="238" type="line" smooth="yes"/>
      <point x="112" y="283"/>
      <point x="112" y="334"/>
      <point x="125" y="380" type="curve" smooth="yes"/>
      <point x="152" y="474"/>
      <point x="223" y="513"/>
      <point x="330" y="513" type="curve" smooth="yes"/>
      <point x="472" y="513"/>
      <point x="544" y="445"/>
      <point x="544" y="291" type="curve" smooth="yes"/>
      <point x="544" y="131"/>
      <point x="469" y="42"/>
      <point x="343" y="42" type="curve"/>
      <point x="343" y="0" type="line"/>
      <point x="507" y="0"/>
      <point x="586" y="116"/>
      <point x="586" y="284" type="curve" smooth="yes"/>
      <point x="586" y="467"/>
      <point x="493" y="555"/>
      <point x="330" y="555" type="curve" smooth="yes"/>
      <point x="230" y="555"/>
      <point x="150" y="522"/>
      <point x="109" y="449" type="curve"/>
      <point x="109" y="678" type="line"/>
      <point x="270" y="678" type="line"/>
      <point x="270" y="720" type="line"/>
      <point x="0" y="720" type="line"/>
      <point x="0" y="678" type="line"/>
      <point x="70" y="678" type="line"/>
    </contour>
  </outline>
</glyph>
<glyph name="Kje-cy" format="2">
  <advance width="558"/>
  <unicode hex="040C"/>
  <outline>
    <contour>
      <point x="70" y="0" type="line"/>
      <point x="112" y="0" type="line"/>
      <point x="112" y="376" type="line"/>
      <point x="500" y="0" type="line"/>
      <point x="558" y="0" type="line"/>
      <point x="173" y="376" type="line"/>
      <point x="526" y="720" type="line"/>
      <point x="468" y="720" type="line"/>
      <point x="112" y="376" type="line"/>
      <point x="112" y="720" type="line"/>
      <point x="70" y="720" type="line"/>
    </contour>
    <component base="acutecomb" xOffset="86"/>
  </outline>
</glyph>
<glyph name="Iigrave-cy" format="2">
  <advance width="662"/>
  <unicode hex="040D"/>
  <outline>
    <contour>
      <point x="70" y="0" type="line"/>
      <point x="112" y="0" type="line"/>
      <point x="550" y="646" type="line"/>
      <point x="550" y="0" type="line"/>
      <point x="592" y="0" type="line"/>
      <point x="592" y="720" type="line"/>
      <point x="550" y="720" type="line"/>
      <point x="112" y="75" type="line"/>
      <point x="112" y="720" type="line"/>
      <point x="70" y="720" type="line"/>
    </contour>
    <component base="gravecomb" xOffset="98"/>
  </outline>
</glyph>
<glyph name="Dzhe-cy" format="2">
  <advance width="710"/>
  <unicode hex="040F"/>
  <outline>
    <contour>
      <point x="334" y="-120" type="line"/>
      <point x="376" y="-120" type="line"/>
      <point x="376" y="0" type="line"/>
      <point x="640" y="0" type="line"/>
      <point x="640" y="720" type="line"/>
      <point x="598" y="720" type="line"/>
      <point x="598" y="42" type="line"/>
      <point x="112" y="42" type="line"/>
      <point x="112" y="720" type="line"/>
      <point x="70" y="720" type="line"/>
      <point x="70" y="0" type="line"/>
      <point x="334" y="0" type="line"/>
    </contour>
  </outline>
</glyph>
<glyph name="Be-cy" format="2">
  <advance width="581"/>
  <unicode hex="0411"/>
  <outline>
    <contour>
      <point x="70" y="0" type="line"/>
      <point x="335" y="0" type="line" smooth="yes"/>
      <point x="349" y="0"/>
      <point x="363" y="1"/>
      <point x="381" y="4" type="curve" smooth="yes"/>
      <point x="485" y="20"/>
      <point x="551" y="108"/>
      <point x="551" y="216" type="curve" smooth="yes"/>
      <point x="551" y="324"/>
      <point x="485" y="412"/>
      <point x="381" y="428" type="curve" smooth="yes"/>
      <point x="363" y="431"/>
      <point x="349" y="432"/>
      <point x="335" y="432" type="curve" smooth="yes"/>
      <point x="112" y="432" type="line"/>
      <point x="112" y="678" type="line"/>
      <point x="490" y="678" type="line"/>
      <point x="490" y="720" type="line"/>
      <point x="70" y="720" type="line"/>
    </contour>
    <contour>
      <point x="112" y="42" type="line"/>
      <point x="112" y="390" type="line"/>
      <point x="335" y="390" type="line" smooth="yes"/>
      <point x="346" y="390"/>
      <point x="363" y="389"/>
      <point x="379" y="386" type="curve" smooth="yes"/>
      <point x="462" y="370"/>
      <point x="506" y="297"/>
      <point x="506" y="216" type="curve" smooth="yes"/>
      <point x="506" y="135"/>
      <point x="462" y="62"/>
      <point x="379" y="46" type="curve" smooth="yes"/>
      <point x="363" y="43"/>
      <point x="346" y="42"/>
      <point x="335" y="42" type="curve" smooth="yes"/>
    </contour>
  </outline>
</glyph>
<glyph name="Ze-cy" format="2">
  <advance width="561"/>
  <unicode hex="0417"/>
  <outline>
    <contour>
      <point x="284" y="-15" type="curve" smooth="yes"/>
      <point x="441" y="-15"/>
      <point x="531" y="69"/>
      <point x="531" y="196" type="curve" smooth="yes"/>
      <point x="531" y="291"/>
      <point x="481" y="349"/>
      <point x="402" y="369" type="curve"/>
      <point x="462" y="394"/>
      <point x="508" y="456"/>
      <point x="508" y="542" type="curve" smooth="yes"/>
      <point x="508" y="668"/>
      <point x="408" y="735"/>
      <point x="289" y="735" type="curve" smooth="yes"/>
      <point x="171" y="735"/>
      <point x="88" y="670"/>
      <point x="45" y="574" type="curve"/>
      <point x="89" y="557" type="line"/>
      <point x="132" y="643"/>
      <point x="191" y="693"/>
      <point x="288" y="693" type="curve" smooth="yes"/>
      <point x="390" y="693"/>
      <point x="463" y="638"/>
      <point x="463" y="542" type="curve" smooth="yes"/>
      <point x="463" y="455"/>
      <point x="402" y="396"/>
      <point x="294" y="391" type="curve" smooth="yes"/>
      <point x="272" y="390"/>
      <point x="216" y="390"/>
      <point x="211" y="390" type="curve"/>
      <point x="211" y="348" type="line"/>
      <point x="220" y="348"/>
      <point x="220" y="348"/>
      <point x="294" y="345" type="curve" smooth="yes"/>
      <point x="404" y="341"/>
      <point x="486" y="310"/>
      <point x="486" y="198" type="curve" smooth="yes"/>
      <point x="486" y="90"/>
      <point x="409" y="27"/>
      <point x="285" y="27" type="curve" smooth="yes"/>
      <point x="171" y="27"/>
      <point x="97" y="81"/>
      <point x="73" y="158" type="curve"/>
      <point x="30" y="140" type="line"/>
      <point x="59" y="55"/>
      <point x="140" y="-15"/>
    </contour>
  </outline>
</glyph>
<glyph name="Ef-cy" format="2">
  <advance width="692"/>
  <unicode hex="0424"/>
  <outline>
    <contour>
      <point x="325" y="0" type="line"/>
      <point x="367" y="0" type="line"/>
      <point x="367" y="91" type="line"/>
      <point x="515" y="66"/>
      <point x="662" y="173"/>
      <point x="662" y="383" type="curve" smooth="yes"/>
      <point x="662" y="593"/>
      <point x="515" y="700"/>
      <point x="367" y="675" type="curve"/>
      <point x="367" y="720" type="line"/>
      <point x="325" y="720" type="line"/>
      <point x="325" y="675" type="line"/>
      <point x="177" y="700"/>
      <point x="30" y="593"/>
      <point x="30" y="383" type="curve" smooth="yes"/>
      <point x="30" y="173"/>
      <point x="177" y="66"/>
      <point x="325" y="91" type="curve"/>
    </contour>
    <contour>
      <point x="325" y="134" type="line"/>
      <point x="191" y="116"/>
      <point x="75" y="213"/>
      <point x="75" y="383" type="curve" smooth="yes"/>
      <point x="75" y="553"/>
      <point x="191" y="651"/>
      <point x="325" y="633" type="curve"/>
    </contour>
    <contour>
      <point x="367" y="134" type="curve"/>
      <point x="367" y="633" type="line"/>
      <point x="501" y="651"/>
      <point x="617" y="553"/>
      <point x="617" y="383" type="curve" smooth="yes"/>
      <point x="617" y="213"/>
      <point x="501" y="116"/>
    </contour>
  </outline>
</glyph>
<glyph name="Che-cy" format="2">
  <advance width="627"/>
  <unicode hex="0427"/>
  <outline>
    <contour>
      <point x="515" y="0" type="line"/>
      <point x="557" y="0" type="line"/>
      <point x="557" y="720" type="line"/>
      <point x="515" y="720" type="line"/>
      <point x="515" y="313" type="line"/>
      <point x="531" y="371" type="line"/>
      <point x="496" y="338"/>
      <point x="423" y="305"/>
      <point x="327" y="305" type="curve" smooth="yes"/>
      <point x="181" y="305"/>
      <point x="112" y="384"/>
      <point x="112" y="542" type="curve" smooth="yes"/>
      <point x="112" y="720" type="line"/>
      <point x="70" y="720" type="line"/>
      <point x="70" y="524" type="line" smooth="yes"/>
      <point x="70" y="372"/>
      <point x="141" y="261"/>
      <point x="332" y="261" type="curve" smooth="yes"/>
      <point x="421" y="261"/>
      <point x="486" y="285"/>
      <point x="536" y="318" type="curve"/>
      <point x="515" y="350" type="line"/>
    </contour>
  </outline>
</glyph>
<glyph name="be-cy" format="2">
  <advance width="573"/>
  <unicode hex="0431"/>
  <outline>
    <contour>
      <point x="281" y="-15" type="curve" smooth="yes"/>
      <point x="440" y="-15"/>
      <point x="533" y="89"/>
      <point x="533" y="251" type="curve" smooth="yes"/>
      <point x="533" y="413"/>
      <point x="441" y="519"/>
      <point x="294" y="519" type="curve" smooth="yes"/>
      <point x="203" y="519"/>
      <point x="127" y="479"/>
      <point x="86" y="412" type="curve"/>
      <point x="94" y="514"/>
      <point x="124" y="590"/>
      <point x="182" y="625" type="curve" smooth="yes"/>
      <point x="255" y="672"/>
      <point x="403" y="683"/>
      <point x="474" y="695" type="curve"/>
      <point x="468" y="735" type="line"/>
      <point x="386" y="718"/>
      <point x="241" y="716"/>
      <point x="162" y="664" type="curve" smooth="yes"/>
      <point x="117" y="636"/>
      <point x="84" y="588"/>
      <point x="69" y="537" type="curve" smooth="yes"/>
      <point x="55" y="489"/>
      <point x="40" y="373"/>
      <point x="40" y="288" type="curve" smooth="yes"/>
      <point x="40" y="77"/>
      <point x="132" y="-15"/>
    </contour>
    <contour>
      <point x="286" y="27" type="curve" smooth="yes"/>
      <point x="155" y="27"/>
      <point x="85" y="114"/>
      <point x="85" y="252" type="curve" smooth="yes"/>
      <point x="85" y="391"/>
      <point x="157" y="477"/>
      <point x="285" y="477" type="curve" smooth="yes"/>
      <point x="413" y="477"/>
      <point x="488" y="391"/>
      <point x="488" y="252" type="curve" smooth="yes"/>
      <point x="488" y="116"/>
      <point x="418" y="27"/>
    </contour>
  </outline>
</glyph>
<glyph name="zhe-cy" format="2">
  <advance width="654"/>
  <unicode hex="0436"/>
  <outline>
    <contour>
      <point x="10" y="0" type="line"/>
      <point x="60" y="0" type="line"/>
      <point x="306" y="270" type="line"/>
      <point x="306" y="0" type="line"/>
      <point x="348" y="0" type="line"/>
      <point x="348" y="270" type="line"/>
      <point x="594" y="0" type="line"/>
      <point x="644" y="0" type="line"/>
      <point x="396" y="270" type="line"/>
      <point x="636" y="540" type="line"/>
      <point x="586" y="540" type="line"/>
      <point x="348" y="270" type="line"/>
      <point x="348" y="540" type="line"/>
      <point x="306" y="540" type="line"/>
      <point x="306" y="270" type="line"/>
      <point x="68" y="540" type="line"/>
      <point x="18" y="540" type="line"/>
      <point x="258" y="270" type="line"/>
    </contour>
  </outline>
</glyph>
<glyph name="el-cy" format="2">
  <advance width="556"/>
  <unicode hex="043B"/>
  <outline>
    <contour>
      <point x="20" y="0" type="line"/>
      <point x="108" y="-15"/>
      <point x="124" y="16"/>
      <point x="138" y="86" type="curve" smooth="yes"/>
      <point x="155" y="170"/>
      <point x="170" y="321"/>
      <point x="182" y="498" type="curve"/>
      <point x="444" y="498" type="line"/>
      <point x="444" y="0" type="line"/>
      <point x="486" y="0" type="line"/>
      <point x="486" y="540" type="line"/>
      <point x="139" y="540" type="line"/>
      <point x="127" y="346"/>
      <point x="117" y="225"/>
      <point x="100" y="122" type="curve" smooth="yes"/>
      <point x="91" y="66"/>
      <point x="81" y="29"/>
      <point x="20" y="40" type="curve"/>
    </contour>
  </outline>
</glyph>
<glyph name="em-cy" format="2">
  <advance width="670"/>
  <unicode hex="043C"/>
  <outline>
    <contour>
      <point x="70" y="0" type="line"/>
      <point x="112" y="0" type="line"/>
      <point x="112" y="440" type="line"/>
      <point x="312" y="0" type="line"/>
      <point x="358" y="0" type="line"/>
      <point x="558" y="440" type="line"/>
      <point x="558" y="0" type="line"/>
      <point x="600" y="0" type="line"/>
      <point x="600" y="540" type="line"/>
      <point x="557" y="540" type="line"/>
      <point x="335" y="52" type="line"/>
      <point x="113" y="540" type="line"/>
      <point x="70" y="540" type="line"/>
    </contour>
  </outline>
</glyph>
<glyph name="en-cy" format="2">
  <advance width="570"/>
  <unicode hex="043D"/>
  <outline>
    <contour>
      <point x="70" y="0" type="line"/>
      <point x="112" y="0" type="line"/>
      <point x="112" y="249" type="line"/>
      <point x="458" y="249" type="line"/>
      <point x="458" y="0" type="line"/>
      <point x="500" y="0" type="line"/>
      <point x="500" y="540" type="line"/>
      <point x="458" y="540" type="line"/>
      <point x="458" y="291" type="line"/>
      <point x="112" y="291" type="line"/>
      <point x="112" y="540" type="line"/>
      <point x="70" y="540" type="line"/>
    </contour>
  </outline>
</glyph>
<glyph name="tse-cy" format="2">
  <advance width="594"/>
  <unicode hex="0446"/>
  <outline>
    <contour>
      <point x="542" y="-80" type="line"/>
      <point x="584" y="-80" type="line"/>
      <point x="584" y="42" type="line"/>
      <point x="473" y="42" type="line"/>
      <point x="473" y="540" type="line"/>
      <point x="431" y="540" type="line"/>
      <point x="431" y="42" type="line"/>
      <point x="112" y="42" type="line"/>
      <point x="112" y="540" type="line"/>
      <point x="70" y="540" type="line"/>
      <point x="70" y="0" type="line"/>
      <point x="542" y="0" type="line"/>
    </contour>
  </outline>
</glyph>
<glyph name="che-cy" format="2">
  <advance width="523"/>
  <unicode hex="0447"/>
  <outline>
    <contour>
      <point x="411" y="0" type="line"/>
      <point x="453" y="0" type="line"/>
      <point x="453" y="540" type="line"/>
      <point x="411" y="540" type="line"/>
      <point x="411" y="256" type="line"/>
      <point x="373" y="230"/>
      <point x="314" y="215"/>
      <point x="257" y="215" type="curve" smooth="yes"/>
      <point x="156" y="215"/>
      <point x="101" y="262"/>
      <point x="87" y="348" type="curve" smooth="yes"/>
      <point x="83" y="373"/>
      <point x="82" y="402"/>
      <point x="82" y="429" type="curve" smooth="yes"/>
      <point x="82" y="540" type="line"/>
      <point x="40" y="540" type="line"/>
      <point x="40" y="429" type="line" smooth="yes"/>
      <point x="40" y="415"/>
      <point x="40" y="359"/>
      <point x="50" y="317" type="curve" smooth="yes"/>
      <point x="71" y="227"/>
      <point x="143" y="178"/>
      <point x="251" y="178" type="curve" smooth="yes"/>
      <point x="317" y="178"/>
      <point x="376" y="196"/>
      <point x="411" y="214" type="curve"/>
    </contour>
  </outline>
</glyph>
<glyph name="sha-cy" format="2">
  <advance width="737"/>
  <unicode hex="0448"/>
  <outline>
    <contour>
      <point x="70" y="0" type="line"/>
      <point x="667" y="0" type="line"/>
      <point x="667" y="540" type="line"/>
      <point x="625" y="540" type="line"/>
      <point x="625" y="42" type="line"/>
      <point x="390" y="42" type="line"/>
      <point x="390" y="540" type="line"/>
      <point x="348" y="540" type="line"/>
      <point x="348" y="42" type="line"/>
      <point x="112" y="42" type="line"/>
      <point x="112" y="540" type="line"/>
      <point x="70" y="540" type="line"/>
    </contour>
  </outline>
</glyph>
<glyph name="shcha-cy" format="2">
  <advance width="761"/>
  <unicode hex="0449"/>
  <outline>
    <contour>
      <point x="709" y="-80" type="line"/>
      <point x="751" y="-80" type="line"/>
      <point x="751" y="42" type="line"/>
      <point x="667" y="42" type="line"/>
      <point x="667" y="540" type="line"/>
      <point x="625" y="540" type="line"/>
      <point x="625" y="42" type="line"/>
      <point x="390" y="42" type="line"/>
      <point x="390" y="540" type="line"/>
      <point x="348" y="540" type="line"/>
      <point x="348" y="42" type="line"/>
      <point x="112" y="42" type="line"/>
      <point x="112" y="540" type="line"/>
      <point x="70" y="540" type="line"/>
      <point x="70" y="0" type="line"/>
      <point x="709" y="0" type="line"/>
    </contour>
  </outline>
</glyph>
<glyph name="hardsign-cy" format="2">
  <advance width="532"/>
  <unicode hex="044A"/>
  <outline>
    <contour>
      <point x="91" y="0" type="line"/>
      <point x="289" y="0" type="line" smooth="yes"/>
      <point x="320" y="0"/>
      <point x="347" y="1"/>
      <point x="375" y="7" type="curve" smooth="yes"/>
      <point x="437" y="20"/>
      <point x="492" y="70"/>
      <point x="492" y="161" type="curve" smooth="yes"/>
      <point x="492" y="263"/>
      <point x="430" y="304"/>
      <point x="358" y="316" type="curve" smooth="yes"/>
      <point x="335" y="320"/>
      <point x="311" y="321"/>
      <point x="279" y="321" type="curve" smooth="yes"/>
      <point x="133" y="321" type="line"/>
      <point x="133" y="540" type="line"/>
      <point x="20" y="540" type="line"/>
      <point x="20" y="498" type="line"/>
      <point x="90" y="498" type="line"/>
    </contour>
    <contour>
      <point x="133" y="42" type="line"/>
      <point x="133" y="279" type="line"/>
      <point x="277" y="279" type="line" smooth="yes"/>
      <point x="304" y="279"/>
      <point x="334" y="278"/>
      <point x="359" y="273" type="curve" smooth="yes"/>
      <point x="414" y="262"/>
      <point x="447" y="233"/>
      <point x="447" y="161" type="curve" smooth="yes"/>
      <point x="447" y="86"/>
      <point x="407" y="60"/>
      <point x="368" y="49" type="curve" smooth="yes"/>
      <point x="343" y="42"/>
      <point x="304" y="42"/>
      <point x="277" y="42" type="curve" smooth="yes"/>
    </contour>
  </outline>
</glyph>
<glyph name="softsign-cy" format="2">
  <advance width="512"/>
  <unicode hex="044C"/>
  <outline>
    <contour>
      <point x="71" y="0" type="line"/>
      <point x="269" y="0" type="line" smooth="yes"/>
      <point x="300" y="0"/>
      <point x="327" y="1"/>
      <point x="355" y="7" type="curve" smooth="yes"/>
      <point x="417" y="20"/>
      <point x="472" y="70"/>
      <point x="472" y="161" type="curve" smooth="yes"/>
      <point x="472" y="263"/>
      <point x="410" y="304"/>
      <point x="338" y="316" type="curve" smooth="yes"/>
      <point x="315" y="320"/>
      <point x="291" y="321"/>
      <point x="259" y="321" type="curve" smooth="yes"/>
      <point x="113" y="321" type="line"/>
      <point x="113" y="540" type="line"/>
      <point x="70" y="540" type="line"/>
    </contour>
    <contour>
      <point x="113" y="42" type="line"/>
      <point x="113" y="279" type="line"/>
      <point x="257" y="279" type="line" smooth="yes"/>
      <point x="284" y="279"/>
      <point x="314" y="278"/>
      <point x="339" y="273" type="curve" smooth="yes"/>
      <point x="394" y="262"/>
      <point x="427" y="233"/>
      <point x="427" y="161" type="curve" smooth="yes"/>
      <point x="427" y="86"/>
      <point x="387" y="60"/>
      <point x="348" y="49" type="curve" smooth="yes"/>
      <point x="323" y="42"/>
      <point x="284" y="42"/>
      <point x="257" y="42" type="curve" smooth="yes"/>
    </contour>
  </outline>
</glyph>
<glyph name="iu-cy" format="2">
  <advance width="751"/>
  <unicode hex="044E"/>
  <outline>
    <contour>
      <point x="464" y="-15" type="curve" smooth="yes"/>
      <point x="624" y="-15"/>
      <point x="711" y="101"/>
      <point x="711" y="271" type="curve" smooth="yes"/>
      <point x="711" y="438"/>
      <point x="625" y="555"/>
      <point x="463" y="555" type="curve" smooth="yes"/>
      <point x="313" y="555"/>
      <point x="224" y="450"/>
      <point x="217" y="291" type="curve"/>
      <point x="112" y="291" type="line"/>
      <point x="112" y="540" type="line"/>
      <point x="70" y="540" type="line"/>
      <point x="70" y="0" type="line"/>
      <point x="112" y="0" type="line"/>
      <point x="112" y="249" type="line"/>
      <point x="218" y="249" type="line"/>
      <point x="225" y="93"/>
      <point x="311" y="-15"/>
    </contour>
    <contour>
      <point x="462" y="27" type="curve" smooth="yes"/>
      <point x="331" y="27"/>
      <point x="262" y="124"/>
      <point x="262" y="271" type="curve" smooth="yes"/>
      <point x="262" y="424"/>
      <point x="336" y="513"/>
      <point x="463" y="513" type="curve" smooth="yes"/>
      <point x="598" y="513"/>
      <point x="666" y="419"/>
      <point x="666" y="271" type="curve" smooth="yes"/>
      <point x="666" y="124"/>
      <point x="600" y="27"/>
    </contour>
  </outline>
</glyph>
<glyph name="ia-cy" format="2">
  <advance width="532"/>
  <unicode hex="044F"/>
  <outline>
    <contour>
      <point x="419" y="0" type="line"/>
      <point x="462" y="0" type="line"/>
      <point x="461" y="540" type="line"/>
      <point x="263" y="540" type="line" smooth="yes"/>
      <point x="239" y="540"/>
      <point x="207" y="540"/>
      <point x="177" y="532" type="curve" smooth="yes"/>
      <point x="116" y="515"/>
      <point x="60" y="463"/>
      <point x="60" y="377" type="curve" smooth="yes"/>
      <point x="60" y="288"/>
      <point x="120" y="241"/>
      <point x="191" y="227" type="curve" smooth="yes"/>
      <point x="214" y="223"/>
      <point x="241" y="219"/>
      <point x="273" y="219" type="curve" smooth="yes"/>
      <point x="419" y="219" type="line"/>
    </contour>
    <contour>
      <point x="40" y="0" type="line"/>
      <point x="90" y="0" type="line"/>
      <point x="257" y="240" type="line"/>
      <point x="205" y="240" type="line"/>
    </contour>
    <contour>
      <point x="275" y="261" type="line" smooth="yes"/>
      <point x="254" y="261"/>
      <point x="223" y="261"/>
      <point x="194" y="268" type="curve" smooth="yes"/>
      <point x="141" y="281"/>
      <point x="105" y="316"/>
      <point x="105" y="378" type="curve" smooth="yes"/>
      <point x="105" y="446"/>
      <point x="149" y="478"/>
      <point x="185" y="489" type="curve" smooth="yes"/>
      <point x="215" y="498"/>
      <point x="256" y="498"/>
      <point x="275" y="498" type="curve" smooth="yes"/>
      <point x="419" y="498" type="line"/>
      <point x="419" y="261" type="line"/>
    </contour>
  </outline>
</glyph>
<glyph name="nje-cy" format="2">
  <advance width="784"/>
  <unicode hex="045A"/>
  <outline>
    <contour>
      <point x="70" y="0" type="line"/>
      <point x="112" y="0" type="line"/>
      <point x="112" y="279" type="line"/>
      <point x="372" y="279" type="line"/>
      <point x="373" y="0" type="line"/>
      <point x="541" y="0" type="line" smooth="yes"/>
      <point x="558" y="0"/>
      <point x="596" y="0"/>
      <point x="627" y="7" type="curve" smooth="yes"/>
      <point x="688" y="21"/>
      <point x="744" y="67"/>
      <point x="744" y="162" type="curve" smooth="yes"/>
      <point x="744" y="265"/>
      <point x="677" y="305"/>
      <point x="610" y="316" type="curve" smooth="yes"/>
      <point x="581" y="321"/>
      <point x="550" y="321"/>
      <point x="531" y="321" type="curve" smooth="yes"/>
      <point x="415" y="321" type="line"/>
      <point x="415" y="540" type="line"/>
      <point x="372" y="540" type="line"/>
      <point x="372" y="321" type="line"/>
      <point x="112" y="321" type="line"/>
      <point x="112" y="540" type="line"/>
      <point x="70" y="540" type="line"/>
    </contour>
    <contour>
      <point x="415" y="42" type="line"/>
      <point x="415" y="279" type="line"/>
      <point x="529" y="279" type="line" smooth="yes"/>
      <point x="544" y="279"/>
      <point x="581" y="279"/>
      <point x="611" y="273" type="curve" smooth="yes"/>
      <point x="666" y="262"/>
      <point x="699" y="233"/>
      <point x="699" y="163" type="curve" smooth="yes"/>
      <point x="699" y="84"/>
      <point x="657" y="59"/>
      <point x="620" y="49" type="curve" smooth="yes"/>
      <point x="593" y="42"/>
      <point x="560" y="42"/>
      <point x="529" y="42" type="curve" smooth="yes"/>
    </contour>
  </outline>
</glyph>
<glyph name="ustrait-cy" format="2">
  <advance width="478"/>
  <unicode hex="04AF"/>
  <outline>
    <contour>
      <point x="216" y="-180" type="line"/>
      <point x="262" y="-180" type="line"/>
      <point x="262" y="0" type="line"/>
      <point x="458" y="540" type="line"/>
      <point x="414" y="540" type="line"/>
      <point x="239" y="61" type="line"/>
      <point x="65" y="540" type="line"/>
      <point x="20" y="540" type="line"/>
      <point x="216" y="0" type="line"/>
    </contour>
  </outline>
</glyph>
<glyph name="obarred-cy" format="2">
  <advance width="574"/>
  <unicode hex="04E9"/>
  <outline>
    <contour>
      <point x="78" y="249" type="line"/>
      <point x="504" y="249" type="line"/>
      <point x="504" y="291" type="line"/>
      <point x="78" y="291" type="line"/>
    </contour>
    <component base="o"/>
  </outline>
</glyph>
<glyph name="emdash" format="2">
  <advance width="780"/>
  <unicode hex="2014"/>
  <outline>
    <contour>
      <point x="60" y="294" type="line"/>
      <point x="720" y="294" type="line"/>
      <point x="720" y="336" type="line"/>
      <point x="60" y="336" type="line"/>
    </contour>
  </outline>
</glyph>
<glyph name="foursuperior" format="2">
  <advance width="404"/>
  <unicode hex="2074"/>
  <outline>
    <contour>
      <point x="263" y="270" type="line"/>
      <point x="304" y="270" type="line"/>
      <point x="304" y="359" type="line"/>
      <point x="354" y="359" type="line"/>
      <point x="354" y="399" type="line"/>
      <point x="304" y="399" type="line"/>
      <point x="304" y="533" type="line"/>
      <point x="263" y="533" type="line"/>
      <point x="263" y="399" type="line"/>
      <point x="96" y="399" type="line"/>
      <point x="248" y="720" type="line"/>
      <point x="202" y="720" type="line"/>
      <point x="50" y="399" type="line"/>
      <point x="50" y="359" type="line"/>
      <point x="263" y="359" type="line"/>
    </contour>
  </outline>
</glyph>
<glyph name="fivesuperior" format="2">
  <advance width="398"/>
  <unicode hex="2075"/>
  <outline>
    <contour>
      <point x="196" y="260" type="curve" smooth="yes"/>
      <point x="279" y="260"/>
      <point x="348" y="329"/>
      <point x="348" y="411" type="curve" smooth="yes"/>
      <point x="348" y="494"/>
      <point x="282" y="560"/>
      <point x="200" y="560" type="curve" smooth="yes"/>
      <point x="152" y="560"/>
      <point x="110" y="539"/>
      <point x="85" y="502" type="curve"/>
      <point x="101" y="479" type="line"/>
      <point x="112" y="697" type="line"/>
      <point x="93" y="681" type="line"/>
      <point x="316" y="681" type="line"/>
      <point x="316" y="720" type="line"/>
      <point x="76" y="720" type="line"/>
      <point x="63" y="487" type="line"/>
      <point x="101" y="469" type="line"/>
      <point x="120" y="500"/>
      <point x="153" y="522"/>
      <point x="196" y="522" type="curve" smooth="yes"/>
      <point x="256" y="522"/>
      <point x="307" y="473"/>
      <point x="307" y="411" type="curve" smooth="yes"/>
      <point x="307" y="351"/>
      <point x="259" y="301"/>
      <point x="196" y="301" type="curve" smooth="yes"/>
      <point x="148" y="301"/>
      <point x="102" y="333"/>
      <point x="89" y="383" type="curve"/>
      <point x="50" y="373" type="line"/>
      <point x="68" y="307"/>
      <point x="125" y="260"/>
    </contour>
  </outline>
</glyph>
<glyph name="sixsuperior" format="2">
  <advance width="446"/>
  <unicode hex="2076"/>
  <outline>
    <contour>
      <point x="223" y="257" type="curve" smooth="yes"/>
      <point x="307" y="257"/>
      <point x="376" y="325"/>
      <point x="376" y="409" type="curve" smooth="yes"/>
      <point x="376" y="492"/>
      <point x="310" y="558"/>
      <point x="226" y="558" type="curve" smooth="yes"/>
      <point x="170" y="558"/>
      <point x="121" y="525"/>
      <point x="96" y="475" type="curve"/>
      <point x="112" y="456" type="line"/>
      <point x="112" y="575" type="line" smooth="yes"/>
      <point x="112" y="636"/>
      <point x="160" y="689"/>
      <point x="225" y="689" type="curve" smooth="yes"/>
      <point x="265" y="689"/>
      <point x="300" y="668"/>
      <point x="320" y="636" type="curve"/>
      <point x="353" y="662" type="line"/>
      <point x="325" y="703"/>
      <point x="278" y="729"/>
      <point x="225" y="729" type="curve" smooth="yes"/>
      <point x="137" y="729"/>
      <point x="70" y="662"/>
      <point x="70" y="572" type="curve" smooth="yes"/>
      <point x="70" y="412" type="line" smooth="yes"/>
      <point x="70" y="325"/>
      <point x="138" y="257"/>
    </contour>
    <contour>
      <point x="223" y="297" type="curve" smooth="yes"/>
      <point x="161" y="297"/>
      <point x="112" y="347"/>
      <point x="112" y="409" type="curve" smooth="yes"/>
      <point x="112" y="470"/>
      <point x="161" y="519"/>
      <point x="223" y="519" type="curve" smooth="yes"/>
      <point x="285" y="519"/>
      <point x="334" y="470"/>
      <point x="334" y="409" type="curve" smooth="yes"/>
      <point x="334" y="347"/>
      <point x="285" y="297"/>
    </contour>
  </outline>
</glyph>
<glyph name="euro" format="2">
  <advance width="626"/>
  <unicode hex="20AC"/>
  <outline>
    <contour>
      <point x="428" y="-15" type="curve" smooth="yes"/>
      <point x="485" y="-15"/>
      <point x="540" y="-3"/>
      <point x="586" y="22" type="curve"/>
      <point x="563" y="58" type="line"/>
      <point x="522" y="37"/>
      <point x="475" y="26"/>
      <point x="428" y="27" type="curve" smooth="yes"/>
      <point x="242" y="29"/>
      <point x="151" y="160"/>
      <point x="151" y="360" type="curve" smooth="yes"/>
      <point x="151" y="555"/>
      <point x="243" y="694"/>
      <point x="428" y="692" type="curve" smooth="yes"/>
      <point x="475" y="691"/>
      <point x="521" y="681"/>
      <point x="562" y="661" type="curve"/>
      <point x="585" y="698" type="line"/>
      <point x="539" y="723"/>
      <point x="484" y="735"/>
      <point x="428" y="735" type="curve" smooth="yes"/>
      <point x="218" y="735"/>
      <point x="110" y="585"/>
      <point x="105" y="360" type="curve" smooth="yes"/>
      <point x="100" y="148"/>
      <point x="216" y="-15"/>
    </contour>
    <contour>
      <point x="30" y="259" type="line"/>
      <point x="469" y="259" type="line"/>
      <point x="469" y="301" type="line"/>
      <point x="30" y="301" type="line"/>
    </contour>
    <contour>
      <point x="30" y="417" type="line"/>
      <point x="469" y="417" type="line"/>
      <point x="469" y="459" type="line"/>
      <point x="30" y="459" type="line"/>
    </contour>
  </outline>
</glyph>
<glyph name="hryvnia" format="2">
  <advance width="553"/>
  <unicode hex="20B4"/>
  <outline>
    <contour>
      <point x="268" y="-15" type="curve" smooth="yes"/>
      <point x="338" y="-15"/>
      <point x="394" y="12"/>
      <point x="434" y="56" type="curve" smooth="yes"/>
      <point x="463" y="88"/>
      <point x="483" y="129"/>
      <point x="489" y="174" type="curve"/>
      <point x="447" y="174" type="line"/>
      <point x="441" y="139"/>
      <point x="424" y="107"/>
      <point x="401" y="83" type="curve" smooth="yes"/>
      <point x="369" y="48"/>
      <point x="325" y="27"/>
      <point x="270" y="27" type="curve" smooth="yes"/>
      <point x="226" y="27"/>
      <point x="172" y="40"/>
      <point x="136" y="74" type="curve" smooth="yes"/>
      <point x="112" y="97"/>
      <point x="96" y="130"/>
      <point x="96" y="170" type="curve" smooth="yes"/>
      <point x="96" y="213"/>
      <point x="114" y="243"/>
      <point x="142" y="267" type="curve" smooth="yes"/>
      <point x="161" y="284"/>
      <point x="184" y="298"/>
      <point x="210" y="311" type="curve"/>
      <point x="129" y="311" type="line"/>
      <point x="127" y="310"/>
      <point x="121" y="303"/>
      <point x="118" y="302" type="curve" smooth="yes"/>
      <point x="79" y="270"/>
      <point x="54" y="229"/>
      <point x="54" y="174" type="curve" smooth="yes"/>
      <point x="54" y="119"/>
      <point x="75" y="72"/>
      <point x="112" y="39" type="curve" smooth="yes"/>
      <point x="150" y="5"/>
      <point x="208" y="-15"/>
    </contour>
    <contour>
      <point x="23" y="269" type="line"/>
      <point x="522" y="269" type="line"/>
      <point x="522" y="311" type="line"/>
      <point x="23" y="311" type="line"/>
    </contour>
    <contour>
      <point x="23" y="407" type="line"/>
      <point x="522" y="407" type="line"/>
      <point x="522" y="449" type="line"/>
      <point x="23" y="449" type="line"/>
    </contour>
    <contour>
      <point x="330" y="407" type="curve"/>
      <point x="408" y="407" type="line"/>
      <point x="416" y="413"/>
      <point x="423" y="419"/>
      <point x="429" y="426" type="curve" smooth="yes"/>
      <point x="461" y="462"/>
      <point x="476" y="496"/>
      <point x="476" y="543" type="curve" smooth="yes"/>
      <point x="476" y="602"/>
      <point x="453" y="649"/>
      <point x="416" y="683" type="curve" smooth="yes"/>
      <point x="380" y="716"/>
      <point x="329" y="735"/>
      <point x="275" y="735" type="curve" smooth="yes"/>
      <point x="220" y="735"/>
      <point x="173" y="715"/>
      <point x="137" y="683" type="curve" smooth="yes"/>
      <point x="99" y="649"/>
      <point x="73" y="600"/>
      <point x="70" y="546" type="curve"/>
      <point x="112" y="546" type="line"/>
      <point x="116" y="588"/>
      <point x="135" y="625"/>
      <point x="164" y="651" type="curve" smooth="yes"/>
      <point x="193" y="677"/>
      <point x="231" y="693"/>
      <point x="275" y="693" type="curve" smooth="yes"/>
      <point x="322" y="693"/>
      <point x="362" y="675"/>
      <point x="387" y="653" type="curve" smooth="yes"/>
      <point x="414" y="629"/>
      <point x="434" y="591"/>
      <point x="434" y="544" type="curve" smooth="yes"/>
      <point x="434" y="508"/>
      <point x="422" y="480"/>
      <point x="397" y="454" type="curve" smooth="yes"/>
      <point x="381" y="437"/>
      <point x="359" y="422"/>
    </contour>
  </outline>
</glyph>
<glyph name="carriagereturn" format="2">
  <advance width="794"/>
  <unicode hex="21B5"/>
  <outline>
    <contour>
      <point x="371" y="84" type="line"/>
      <point x="399" y="111" type="line"/>
      <point x="216" y="294" type="line"/>
      <point x="734" y="294" type="line"/>
      <point x="734" y="720" type="line"/>
      <point x="692" y="720" type="line"/>
      <point x="692" y="336" type="line"/>
      <point x="216" y="336" type="line"/>
      <point x="399" y="519" type="line"/>
      <point x="371" y="546" type="line"/>
      <point x="140" y="315" type="line"/>
    </contour>
  </outline>
</glyph>
<glyph name="emptyset" format="2">
  <advance width="600"/>
  <unicode hex="2205"/>
  <outline>
    <contour>
      <point x="74" y="17" type="line"/>
      <point x="555" y="496" type="line"/>
      <point x="525" y="527" type="line"/>
      <point x="44" y="47" type="line"/>
    </contour>
    <contour>
      <point x="300" y="40" type="curve" smooth="yes"/>
      <point x="428" y="40"/>
      <point x="532" y="144"/>
      <point x="532" y="273" type="curve" smooth="yes"/>
      <point x="532" y="401"/>
      <point x="428" y="505"/>
      <point x="300" y="505" type="curve" smooth="yes"/>
      <point x="171" y="505"/>
      <point x="67" y="401"/>
      <point x="67" y="273" type="curve" smooth="yes"/>
      <point x="67" y="144"/>
      <point x="171" y="40"/>
    </contour>
    <contour>
      <point x="300" y="82" type="curve" smooth="yes"/>
      <point x="194" y="82"/>
      <point x="109" y="167"/>
      <point x="109" y="273" type="curve" smooth="yes"/>
      <point x="109" y="378"/>
      <point x="194" y="463"/>
      <point x="300" y="463" type="curve" smooth="yes"/>
      <point x="405" y="463"/>
      <point x="490" y="378"/>
      <point x="490" y="273" type="curve" smooth="yes"/>
      <point x="490" y="167"/>
      <point x="405" y="82"/>
    </contour>
  </outline>
</glyph>
<glyph name="summation" format="2">
  <advance width="515"/>
  <unicode hex="2211"/>
  <outline>
    <contour>
      <point x="60" y="-67" type="line"/>
      <point x="455" y="-66" type="line"/>
      <point x="455" y="-29" type="line"/>
      <point x="71" y="-29" type="line"/>
      <point x="84" y="-53" type="line"/>
      <point x="454" y="256" type="line"/>
      <point x="454" y="303" type="line"/>
      <point x="84" y="612" type="line"/>
      <point x="71" y="588" type="line"/>
      <point x="454" y="588" type="line"/>
      <point x="454" y="625" type="line"/>
      <point x="60" y="625" type="line"/>
      <point x="60" y="583" type="line"/>
      <point x="441" y="265" type="line"/>
      <point x="441" y="295" type="line"/>
      <point x="60" y="-26" type="line"/>
    </contour>
  </outline>
</glyph>
<glyph name="integral" format="2">
  <advance width="600"/>
  <unicode hex="222B"/>
  <outline>
    <contour>
      <point x="73" y="-160" type="line"/>
      <point x="143" y="-160" type="line" smooth="yes"/>
      <point x="161" y="-160"/>
      <point x="210" y="-160"/>
      <point x="246" y="-126" type="curve" smooth="yes"/>
      <point x="281" y="-93"/>
      <point x="286" y="-42"/>
      <point x="288" y="-26" type="curve" smooth="yes"/>
      <point x="354" y="597" type="line" smooth="yes"/>
      <point x="362" y="672"/>
      <point x="397" y="697"/>
      <point x="458" y="697" type="curve" smooth="yes"/>
      <point x="523" y="697" type="line"/>
      <point x="527" y="735" type="line"/>
      <point x="457" y="735" type="line" smooth="yes"/>
      <point x="439" y="735"/>
      <point x="390" y="735"/>
      <point x="354" y="701" type="curve" smooth="yes"/>
      <point x="318" y="667"/>
      <point x="314" y="616"/>
      <point x="312" y="601" type="curve" smooth="yes"/>
      <point x="246" y="-22" type="line" smooth="yes"/>
      <point x="238" y="-97"/>
      <point x="203" y="-122"/>
      <point x="142" y="-122" type="curve" smooth="yes"/>
      <point x="77" y="-122" type="line"/>
    </contour>
  </outline>
</glyph>
<glyph name="lozenge" format="2">
  <advance width="453"/>
  <unicode hex="25CA"/>
  <outline>
    <contour>
      <point x="201" y="0" type="line"/>
      <point x="252" y="0" type="line"/>
      <point x="403" y="335" type="line"/>
      <point x="252" y="670" type="line"/>
      <point x="201" y="670" type="line"/>
      <point x="50" y="335" type="line"/>
    </contour>
    <contour>
      <point x="227" y="33" type="line"/>
      <point x="95" y="335" type="line"/>
      <point x="227" y="637" type="line"/>
      <point x="358" y="335" type="line"/>
    </contour>
  </outline>
</glyph>
<glyph name="Oval-condensed" format="2">
  <advance width="618"/>
  <outline>
    <contour>
      <point x="309" y="-15" type="curve" smooth="yes"/>
      <point x="499" y="-15"/>
      <point x="588" y="160"/>
      <point x="588" y="360" type="curve" smooth="yes"/>
      <point x="588" y="550"/>
      <point x="499" y="734"/>
      <point x="309" y="734" type="curve" smooth="yes"/>
      <point x="119" y="734"/>
      <point x="30" y="550"/>
      <point x="30" y="360" type="curve" smooth="yes"/>
      <point x="30" y="170"/>
      <point x="119" y="-15"/>
    </contour>
    <contour>
      <point x="309" y="27" type="curve" smooth="yes"/>
      <point x="154" y="27"/>
      <point x="73" y="185"/>
      <point x="75" y="360" type="curve" smooth="yes"/>
      <point x="77" y="535"/>
      <point x="154" y="692"/>
      <point x="309" y="692" type="curve" smooth="yes"/>
      <point x="464" y="692"/>
      <point x="545" y="535"/>
      <point x="543" y="360" type="curve" smooth="yes"/>
      <point x="541" y="185"/>
      <point x="464" y="27"/>
    </contour>
  </outline>
</glyph>
<glyph name="line-vertical-short" format="2">
  <advance width="42"/>
  <outline>
    <contour>
      <point x="0" y="0" type="line"/>
      <point x="39" y="0" type="line"/>
      <point x="39" y="110" type="line"/>
      <point x="42" y="110" type="line"/>
      <point x="42" y="540" type="line"/>
      <point x="0" y="540" type="line"/>
    </contour>
  </outline>
</glyph>
<glyph name="ve-cy.loclBGR" format="2">
  <advance width="544"/>
  <outline>
    <contour>
      <point x="292" y="-15" type="curve" smooth="yes"/>
      <point x="437" y="-15"/>
      <point x="515" y="76"/>
      <point x="515" y="193" type="curve" smooth="yes"/>
      <point x="515" y="341"/>
      <point x="392" y="397"/>
      <point x="325" y="392" type="curve"/>
      <point x="313" y="387" type="line"/>
      <point x="403" y="392"/>
      <point x="449" y="460"/>
      <point x="449" y="552" type="curve" smooth="yes"/>
      <point x="449" y="670"/>
      <point x="374" y="735"/>
      <point x="260" y="735" type="curve" smooth="yes"/>
      <point x="166" y="735"/>
      <point x="109" y="691"/>
      <point x="85" y="628" type="curve" smooth="yes"/>
      <point x="75" y="603"/>
      <point x="70" y="569"/>
      <point x="70" y="532" type="curve" smooth="yes"/>
      <point x="70" y="204" type="line" smooth="yes"/>
      <point x="70" y="175"/>
      <point x="73" y="148"/>
      <point x="78" y="127" type="curve" smooth="yes"/>
      <point x="98" y="46"/>
      <point x="173" y="-15"/>
    </contour>
    <contour>
      <point x="294" y="28" type="curve" smooth="yes"/>
      <point x="213" y="28"/>
      <point x="142" y="70"/>
      <point x="124" y="132" type="curve" smooth="yes"/>
      <point x="119" y="150"/>
      <point x="116" y="175"/>
      <point x="116" y="204" type="curve" smooth="yes"/>
      <point x="116" y="521" type="line" smooth="yes"/>
      <point x="116" y="550"/>
      <point x="118" y="580"/>
      <point x="126" y="606" type="curve" smooth="yes"/>
      <point x="145" y="666"/>
      <point x="199" y="693"/>
      <point x="261" y="693" type="curve" smooth="yes"/>
      <point x="350" y="693"/>
      <point x="404" y="639"/>
      <point x="404" y="553" type="curve" smooth="yes"/>
      <point x="404" y="457"/>
      <point x="336" y="416"/>
      <point x="260" y="406" type="curve"/>
      <point x="260" y="364" type="line"/>
      <point x="390" y="360"/>
      <point x="470" y="299"/>
      <point x="470" y="195" type="curve" smooth="yes"/>
      <point x="470" y="96"/>
      <point x="397" y="28"/>
    </contour>
  </outline>
</glyph>
<glyph name="zhe-cy.loclBGR" format="2">
  <advance width="652"/>
  <outline>
    <contour>
      <point x="11" y="0" type="line"/>
      <point x="61" y="0" type="line"/>
      <point x="306" y="269" type="line"/>
      <point x="306" y="0" type="line"/>
      <point x="348" y="0" type="line"/>
      <point x="348" y="269" type="line"/>
      <point x="593" y="0" type="line"/>
      <point x="643" y="0" type="line"/>
      <point x="395" y="270" type="line"/>
      <point x="635" y="540" type="line"/>
      <point x="585" y="540" type="line"/>
      <point x="348" y="271" type="line"/>
      <point x="348" y="720" type="line"/>
      <point x="306" y="720" type="line"/>
      <point x="306" y="271" type="line"/>
      <point x="69" y="540" type="line"/>
      <point x="19" y="540" type="line"/>
      <point x="259" y="270" type="line"/>
    </contour>
  </outline>
</glyph>
